<?xml version="1.0" encoding="utf-8"?>
<!-- Generator: Adobe Illustrator 26.3.1, SVG Export Plug-In . SVG Version: 6.00 Build 0)  -->
<svg version="1.1" id="Capa_1" xmlns="http://www.w3.org/2000/svg" xmlns:xlink="http://www.w3.org/1999/xlink" x="0px" y="0px"
	 viewBox="0 0 240 96" style="enable-background:new 0 0 240 96;" xml:space="preserve">
<style type="text/css">
	.st0{fill:#07131A;}
	.st1{fill:#0669B2;}
</style>
<g>
	<rect x="134.4555511" y="53.6197624" class="st0" width="1.3823397" height="26.1436119"/>
	<path d="M154.9734039,63.7288818c-0.6542358,0-1.2543945-0.1154785-1.8014984-0.348465
		c-0.546051-0.2329903-1.0203552-0.5668526-1.4239197-1.0016251c-0.4025574-0.4337578-0.7145844-0.9465218-0.9329987-1.538353
		c-0.2194672-0.590786-0.3286896-1.2408638-0.3286896-1.9481773c0-0.671917,0.1175385-1.2970161,0.3546906-1.8743095
		c0.2371368-0.5772629,0.5668793-1.0858688,0.9881287-1.5247993c0.4212494-0.4399796,0.9090729-0.7800941,1.4644928-1.021431
		c0.5554199-0.2423515,1.1555786-0.3630028,1.8004456-0.3630028c0.456604,0,0.9017944,0.069706,1.337616,0.2090836
		c0.4337311,0.1383324,0.8279266,0.3307533,1.1815643,0.5772629c0.3536835,0.2454643,0.6428223,0.5263176,0.8664398,0.8393898
		l-0.9673157,1.0078773c-0.260025-0.2600288-0.5221558-0.4763832-0.7863464-0.6521721
		c-0.2641907-0.1747398-0.5325317-0.3057747-0.8060913-0.3952217c-0.2735596-0.0904961-0.5481567-0.1352234-0.8258667-0.1352234
		c-0.4389343,0-0.8487244,0.0831985-1.2294006,0.2485733c-0.380722,0.1653786-0.7114716,0.3963013-0.9943848,0.6927414
		c-0.2818756,0.2953911-0.5034027,0.6459198-0.6656647,1.0546989c-0.1601715,0.4077263-0.2413177,0.8518639-0.2413177,1.3365326
		c0,0.5107002,0.0790405,0.9735641,0.2350616,1.3906593c0.1570587,0.4160423,0.3775635,0.7728233,0.6646423,1.0682182
		c0.2870789,0.2953911,0.6292877,0.5221252,1.0287018,0.6781693c0.3983612,0.1570625,0.8404083,0.235054,1.3230133,0.235054
		c0.2964478,0,0.5866547-0.0405693,0.8737335-0.1206551c0.2870483-0.0800858,0.5554199-0.196579,0.8060913-0.3494797
		c0.2506714-0.1518555,0.4795074-0.3307533,0.6854401-0.5366974l0.7249603,1.181572
		c-0.2059479,0.2413025-0.4857483,0.4618149-0.839386,0.6583939c-0.3536377,0.197628-0.7478485,0.3515778-1.1826172,0.463913
		S155.4113159,63.7288818,154.9734039,63.7288818"/>
	<path d="M163.1013641,62.4661446c0.4212799,0,0.7978058-0.1050339,1.1285706-0.315136
		c0.3317871-0.2111473,0.5918274-0.4982262,0.7790375-0.8602104c0.1893158-0.3630066,0.2787628-0.7727966,0.2693939-1.2294083
		c0.0093689-0.4659729-0.0800781-0.8810043-0.2693939-1.2429581c-0.1872101-0.3630028-0.4472504-0.6469688-0.7790375-0.8529129
		c-0.3307648-0.2059441-0.7072906-0.3099632-1.1285706-0.3099632c-0.4212494,0-0.7987823,0.1061134-1.1347504,0.3162155
		c-0.3359528,0.2101021-0.5991364,0.4971771-0.7863464,0.8601799c-0.1882629,0.3630066-0.27771,0.7717819-0.2683563,1.2294388
		c-0.0093536,0.4566116,0.0800934,0.8664017,0.2683563,1.2294083c0.1872101,0.3619843,0.4503937,0.6490631,0.7863464,0.8602104
		C162.3025818,62.3611107,162.6801147,62.4661446,163.1013641,62.4661446 M163.1013641,63.7288818
		c-0.6895905,0-1.3043213-0.1591568-1.8462219-0.476387c-0.5429382-0.3182793-0.9704132-0.7530518-1.283493-1.3032722
		c-0.3141174-0.5512657-0.4701691-1.1805534-0.4701691-1.8878326c0-0.7083244,0.1560516-1.337616,0.4701691-1.8878326
		c0.3130798-0.5512657,0.7405548-0.9850235,1.283493-1.3033028c0.5419006-0.3182793,1.1566315-0.4774017,1.8462219-0.4774017
		c0.6813202,0,1.2928925,0.1591225,1.8347931,0.4774017s0.9694061,0.752037,1.2835236,1.3033028
		c0.3130798,0.5502167,0.4690857,1.1795082,0.4690857,1.8878326c0,0.7072792-0.1560059,1.3365669-0.4690857,1.8878326
		c-0.3141174,0.5502205-0.7416229,0.984993-1.2835236,1.3032722
		C164.3942566,63.569725,163.7826843,63.7288818,163.1013641,63.7288818"/>
	<path d="M168.1938629,63.5948982V56.540741h1.3843994v1.4509964l-0.2413025,0.1612206
		c0.0883942-0.313076,0.2631378-0.6022453,0.5231781-0.866436c0.260025-0.2641907,0.5678864-0.479496,0.9267426-0.6448746
		c0.3588409-0.1653748,0.7249908-0.2486038,1.1025238-0.2486038c0.5367279,0,0.9850311,0.1050682,1.3428192,0.3162155
		c0.3588562,0.2101021,0.6271973,0.5304756,0.8071442,0.960041c0.178894,0.4295692,0.2683563,0.9714699,0.2683563,1.6257057
		v4.2998924h-1.3844147v-4.2062836c0-0.402523-0.0530396-0.7353706-0.1612091-1.0006065
		c-0.107132-0.2641907-0.2735596-0.4566116-0.49617-0.5783119c-0.2246704-0.1206512-0.5023804-0.1715965-0.8331299-0.1539192
		c-0.2693939,0-0.5159149,0.0426331-0.7395325,0.1279221c-0.2246704,0.0852928-0.4191589,0.2038803-0.5845337,0.3557358
		c-0.1654053,0.1529007-0.2954254,0.3286896-0.3900452,0.5304756c-0.0946503,0.2017822-0.1404266,0.4191551-0.1404266,0.6521416
		v4.2728462h-0.6854401h-0.3494873H168.1938629z"/>
	<path d="M178.5397797,63.7288818c-0.5918427,0-1.1243744-0.1029739-1.5986633-0.3089485
		c-0.4753418-0.2059441-0.8695526-0.5107002-1.1826172-0.9132233l0.9402618-0.8060913
		c0.2683411,0.3130722,0.5626984,0.5398407,0.8799591,0.6781731c0.3172302,0.1393776,0.679184,0.208004,1.0817108,0.208004
		c0.1612091,0,0.3110046-0.0197411,0.4503784-0.0603104c0.139389-0.0405655,0.2600403-0.1009064,0.3619537-0.1809921
		c0.1040192-0.081131,0.1820526-0.1768036,0.2361298-0.2891388c0.0530548-0.1113205,0.0800934-0.2350845,0.0800934-0.3692589
		c0-0.2329865-0.0842438-0.4212494-0.2548218-0.564785c-0.089447-0.0624084-0.2319794-0.1321144-0.4233551-0.2080383
		c-0.1924133-0.0759277-0.4410248-0.1549683-0.7457733-0.235054c-0.5190125-0.1341705-0.9454803-0.287075-1.2772827-0.4566078
		c-0.3307495-0.1705856-0.5855713-0.3630066-0.7644653-0.5783119c-0.1352234-0.1695671-0.2330017-0.3557358-0.2964478-0.557518
		c-0.0624084-0.201786-0.0936127-0.4233475-0.0936127-0.66465c0-0.2964401,0.0644684-0.5668526,0.1944885-0.8133621
		c0.1300201-0.2454948,0.309967-0.4618187,0.5377502-0.6448746c0.2278137-0.1830864,0.4972076-0.3245316,0.8061218-0.4233437
		c0.3089142-0.0977669,0.6386108-0.1476974,0.9870453-0.1476974c0.3318024,0,0.6604919,0.0447235,0.9881439,0.1352234
		c0.3265839,0.089447,0.6292877,0.2184181,0.9069977,0.3889999c0.27771,0.1695328,0.5106964,0.3713188,0.6989594,0.6043053
		l-0.792572,0.873703c-0.170578-0.1695328-0.3557281-0.3203392-0.5585632-0.4503555
		c-0.2017822-0.1289711-0.4046173-0.2309265-0.6115723-0.3016472c-0.2059479-0.0717697-0.3942108-0.1081772-0.5637817-0.1081772
		c-0.1882629,0-0.3577881,0.0176811-0.5096436,0.0540886c-0.1529083,0.0353622-0.2808228,0.0894508-0.3838043,0.1601715
		c-0.1029663,0.0728149-0.1809845,0.1622658-0.2350769,0.2693939c-0.0540924,0.107132-0.081131,0.2288322-0.081131,0.3630066
		c0.0093689,0.1164932,0.0384979,0.2257156,0.0873871,0.3297348c0.0499268,0.1019249,0.1185608,0.189312,0.2080078,0.2610817
		c0.0988159,0.0717659,0.2465057,0.1476936,0.4441376,0.2287979c0.196579,0.081131,0.4472504,0.156044,0.7520294,0.2288284
		c0.4483032,0.1164932,0.8175201,0.2433968,1.1087494,0.3817291c0.2912445,0.1393814,0.5211182,0.2985382,0.6916962,0.4774361
		c0.1789093,0.1705818,0.3047638,0.3682098,0.3765259,0.5918312c0.0707245,0.2236252,0.107132,0.4742928,0.107132,0.7520027
		c0,0.4035721-0.1133881,0.7634659-0.3422089,1.0817413c-0.2288361,0.3182793-0.5356445,0.5668526-0.9204865,0.7457504
		C179.4447174,63.639431,179.0151062,63.7288818,178.5397797,63.7288818"/>
	<path d="M185.9171906,63.7288818c-0.7259979,0-1.3687897-0.1539497-1.9284058-0.4628639
		c-0.5606232-0.308918-0.9995575-0.7333107-1.3167877-1.2700043c-0.3182831-0.5366974-0.4774017-1.1555748-0.4774017-1.854538
		c0-0.5554237,0.089447-1.0609512,0.2693634-1.5175591c0.1789398-0.4576607,0.4275055-0.8539314,0.7447357-1.189888
		c0.3182831-0.3349457,0.6989594-0.5949745,1.1430969-0.7790794c0.4431305-0.1830597,0.9246826-0.2756195,1.4436951-0.2756195
		c0.4576721,0,0.8820648,0.0873566,1.2762604,0.2620964c0.3942108,0.1747398,0.737442,0.4139824,1.0286713,0.7187386
		c0.2902222,0.3047562,0.5148621,0.6656952,0.6719208,1.0817413c0.1560364,0.4170914,0.2309265,0.8716087,0.2215576,1.3636093
		l-0.0135193,0.591835h-5.7643738l-0.3089142-1.1025314h4.8771515l-0.2017975,0.2288284v-0.3224678
		c-0.0270386-0.2953949-0.1248016-0.5595856-0.2953796-0.7935867c-0.1695404-0.2319717-0.3848419-0.4150314-0.6448822-0.550251
		c-0.260025-0.1341743-0.5419312-0.201786-0.8466949-0.201786c-0.4836426,0-0.8913727,0.0925941-1.2221375,0.2766991
		c-0.3317871,0.1830559-0.5824585,0.4514046-0.7530518,0.8050423c-0.1695251,0.3546867-0.2548218,0.7905083-0.2548218,1.3105698
		c0,0.4930191,0.1029816,0.9204941,0.3089142,1.2824821c0.2059479,0.3630028,0.4971771,0.6438255,0.8726654,0.8404045
		c0.3765259,0.196579,0.8112946,0.2953911,1.304306,0.2953911c0.3494873,0,0.6729736-0.0582466,0.9735718-0.1747398
		c0.3005981-0.115448,0.6251221-0.3265953,0.9746094-0.6313515l0.6989594,0.9808311
		c-0.2153015,0.2142601-0.4774323,0.4035721-0.7863464,0.5647888c-0.3089142,0.1602058-0.6355133,0.2891731-0.980835,0.3827782
		C186.5870514,63.6820602,186.2479401,63.7288818,185.9171906,63.7288818"/>
	<path d="M191.4114685,54.9818192c-0.2953796,0-0.5242157-0.0759277-0.6844177-0.2277832
		c-0.1612244-0.1529007-0.2423553-0.3671608-0.2423553-0.6449051c0-0.2600327,0.0821838-0.4701347,0.2486115-0.6323662
		c0.1664276-0.1612511,0.3921051-0.2413368,0.6781616-0.2413368c0.2964478,0,0.524231,0.0759277,0.6864929,0.2288284
		c0.1601715,0.1518555,0.2413025,0.3671608,0.2413025,0.6448746c0,0.2600327-0.0832214,0.4701653-0.2485962,0.631382
		C191.925293,54.9017334,191.6985474,54.9818192,191.4114685,54.9818192 M189.6515656,66.2422256l-0.5231781-1.0619659
		c0.3484344,0,0.6376038-0.0603104,0.8664398-0.1809921c0.2277832-0.1206512,0.4004211-0.3005981,0.516922-0.5377426
		c0.1164856-0.2371521,0.1747284-0.5304451,0.1747284-0.8799286v-7.0406342h1.3833923v7.3765945
		c0,0.4566116-0.0998535,0.8601837-0.301651,1.2086105c-0.2017822,0.3494873-0.4836426,0.6230392-0.8466492,0.8206635
		C190.5585632,66.1434097,190.1352234,66.2422256,189.6515656,66.2422256"/>
	<path d="M197.3510132,63.7288818c-0.7260132,0-1.3677826-0.1539497-1.9284058-0.4628639
		c-0.5606384-0.308918-0.9985199-0.7333107-1.3167877-1.2700043c-0.3182831-0.5366974-0.4774323-1.1555748-0.4774323-1.854538
		c0-0.5554237,0.0904846-1.0609512,0.2693939-1.5175591c0.178894-0.4576607,0.4275055-0.8539314,0.7457733-1.189888
		c0.3172302-0.3349457,0.6979218-0.5949745,1.1420593-0.7790794c0.4430847-0.1830597,0.9246826-0.2756195,1.4436951-0.2756195
		c0.4576569,0,0.8830719,0.0873566,1.2772675,0.2620964c0.3931885,0.1747398,0.7364197,0.4139824,1.0276642,0.7187386
		c0.2901764,0.3047562,0.5148468,0.6656952,0.6719055,1.0817413c0.1570587,0.4170914,0.2309265,0.8716087,0.2215729,1.3636093
		l-0.0135345,0.591835h-5.7643738l-0.3089447-1.1025314h4.877182l-0.2007751,0.2288284v-0.3224678
		c-0.0270386-0.2953949-0.1258545-0.5595856-0.2964325-0.7935867c-0.1695404-0.2319717-0.3848419-0.4150314-0.6448669-0.550251
		c-0.2589874-0.1341743-0.5419159-0.201786-0.8466644-0.201786c-0.4836578,0-0.8913879,0.0925941-1.2221375,0.2766991
		c-0.3318024,0.1830559-0.5824738,0.4514046-0.7530518,0.8050423c-0.1695404,0.3546867-0.2548218,0.7905083-0.2548218,1.3105698
		c0,0.4930191,0.1029663,0.9204941,0.3089142,1.2824821c0.2059326,0.3630028,0.4971771,0.6438255,0.8726501,0.8404045
		c0.3775787,0.196579,0.8112946,0.2953911,1.3043213,0.2953911c0.349472,0,0.6740112-0.0582466,0.9746094-0.1747398
		c0.2995453-0.115448,0.6240845-0.3265953,0.9735565-0.6313515l0.6989746,0.9808311
		c-0.2153168,0.2142601-0.4774323,0.4035721-0.7863464,0.5647888c-0.3089294,0.1602058-0.6355133,0.2891731-0.980835,0.3827782
		C198.0208588,63.6820602,197.6817627,63.7288818,197.3510132,63.7288818"/>
	<path d="M201.9320374,63.5948982V56.540741h1.3979187v2.2165222l-0.1341705-0.5366974
		c0.0977631-0.3401146,0.2652435-0.6490326,0.5034332-0.9277916c0.2371521-0.2766953,0.5106964-0.4961624,0.8196106-0.6583939
		c0.3089142-0.160202,0.6292877-0.2413368,0.9610901-0.2413368c0.1518555,0,0.2974548,0.0135231,0.4368439,0.0395508
		c0.1383209,0.0270424,0.2475586,0.0592613,0.3286896,0.0946541l-0.3630066,1.5050545
		c-0.107132-0.0447235-0.2257233-0.0832253-0.3557434-0.1144295c-0.1300049-0.0312004-0.2579346-0.0467873-0.3827362-0.0467873
		c-0.2423553,0-0.4732819,0.0467873-0.6916962,0.1403961c-0.22052,0.0946541-0.4129333,0.2246704-0.5783081,0.3900452
		c-0.1653748,0.1664276-0.2985077,0.3588486-0.3963013,0.5783119c-0.0988159,0.2194977-0.1477051,0.4587059-0.1477051,0.7187386
		v3.8963203H201.9320374z"/>
	<path d="M207.3202362,56.5406456h1.3843994v7.0541573h-1.3843994V56.5406456z M207.0518951,55.4526825l-0.4566498-0.6854401
		l1.9210968-1.6798286l0.8737335,1.1015167L207.0518951,55.4526825z"/>
	<path d="M213.689621,62.4526215c0.4201965,0,0.7926025-0.1019211,1.115036-0.3089142
		c0.3224335-0.2059402,0.5762482-0.4909248,0.7592773-0.8529091c0.1830902-0.3630066,0.27565-0.7769547,0.27565-1.2429314
		c0-0.4566422-0.0925598-0.865387-0.27565-1.2232132c-0.1830292-0.3577995-0.4368439-0.6407166-0.7592773-0.8466606
		s-0.6948395-0.3089142-1.115036-0.3089142c-0.4129028,0-0.7769775,0.1029701-1.0952301,0.3089142
		c-0.3183136,0.2059441-0.5689545,0.4888611-0.7520294,0.8466606c-0.1841125,0.3578262-0.275589,0.766571-0.275589,1.2232132
		c0,0.4659767,0.0914764,0.8799248,0.275589,1.2429314c0.183075,0.3619843,0.4337158,0.6469688,0.7520294,0.8529091
		C212.9126434,62.3507004,213.2767181,62.4526215,213.689621,62.4526215 M213.3266144,63.7288818
		c-0.5824585,0-1.1129456-0.1612206-1.5924377-0.4836884c-0.4784241-0.3213882-0.8622437-0.7613678-1.1493225-1.3167915
		c-0.2860565-0.5543785-0.4295959-1.181572-0.4295959-1.8805351c0-0.7073097,0.1456299-1.3365669,0.437912-1.8878326
		c0.2901917-0.5512657,0.684433-0.9839745,1.1815796-1.2970467c0.4972076-0.313076,1.054718-0.4701347,1.6725464-0.4701347
		c0.3671417,0,0.7030945,0.0540886,1.0078888,0.1612206c0.304718,0.1071281,0.5710297,0.2579346,0.7998352,0.4493408
		c0.2277832,0.1934662,0.4160767,0.4160423,0.563736,0.6656647c0.1487427,0.2506676,0.2392731,0.5200653,0.27565,0.8071404
		l-0.3089142-0.1081772v-1.8274918h1.3979187v7.0541573h-1.3979187v-1.6798286l0.3224335-0.0936089
		c-0.0540771,0.2423515-0.1632843,0.4774361-0.3297272,0.7052155c-0.16539,0.2288322-0.3754578,0.4326782-0.6313629,0.6115799
		c-0.2548218,0.1788979-0.5366974,0.3224335-0.8456116,0.4295959
		C213.9913025,63.675808,213.6667633,63.7288818,213.3266144,63.7288818"/>
	<path d="M153.9387054,78.6561432c0.4201965,0,0.792572-0.107132,1.1139526-0.3213882
		c0.3234863-0.2153091,0.5772705-0.5086365,0.7603607-0.8810043c0.1830597-0.3713226,0.2756195-0.794632,0.2756195-1.268959
		c0-0.4753036-0.0925598-0.8976059-0.2756195-1.2699738c-0.1830902-0.371315-0.4368744-0.6656952-0.7603607-0.8799515
		c-0.3213806-0.2153091-0.6937561-0.3224411-1.1139526-0.3224411c-0.4212494,0-0.7926025,0.107132-1.115036,0.3224411
		c-0.3234863,0.2142563-0.5762177,0.5086365-0.7603302,0.8799515c-0.1830444,0.3723679-0.2745972,0.7946701-0.2745972,1.2699738
		c0,0.4743271,0.0915527,0.8976364,0.2745972,1.268959c0.1841125,0.3723679,0.4368439,0.6656952,0.7603302,0.8810043
		C153.1461029,78.5490112,153.5174561,78.6561432,153.9387054,78.6561432 M153.7504425,79.8522797
		c-0.6449127,0-1.2200775-0.1591187-1.7266235-0.4763489c-0.5065308-0.3182831-0.9069977-0.7530518-1.2023926-1.3033066
		c-0.2964325-0.5512619-0.4441376-1.1805191-0.4441376-1.8878326c0-0.7083282,0.1456451-1.3375854,0.4378967-1.8878021
		c0.2902069-0.5512619,0.6864777-0.9850235,1.1878204-1.303299c0.5023804-0.3182831,1.0713196-0.4774017,1.7068634-0.4774017
		c0.3494873,0,0.6875153,0.0561523,1.0140991,0.1684875c0.3266296,0.1123352,0.6209717,0.2641907,0.881012,0.4566116
		c0.2589874,0.192421,0.4628601,0.4025497,0.6105499,0.6313782c0.1477051,0.2287979,0.2215424,0.4597244,0.2215424,0.6916656
		l-0.4025269,0.0270462v-4.7159348h1.3843994v9.9425659h-1.3843994V78.03936h0.2683411
		c0,0.2142639-0.0707092,0.427475-0.2142487,0.6376038c-0.1435394,0.2101059-0.3338623,0.405632-0.5710449,0.5845337
		c-0.2381592,0.1789017-0.5106964,0.3224411-0.8196106,0.4295654
		C154.3880157,79.7992401,154.072876,79.8522797,153.7504425,79.8522797"/>
	<path d="M162.618988,79.8522797c-0.7260132,0-1.3688202-0.1539154-1.9284058-0.4628296
		c-0.5606384-0.3089142-0.9995575-0.7333069-1.3167877-1.2700043c-0.3182831-0.5366974-0.4774475-1.155571-0.4774475-1.854538
		c0-0.5554199,0.0894623-1.0609512,0.2694092-1.5175552c0.178894-0.4576645,0.4264526-0.8539352,0.7447357-1.189888
		c0.3182678-0.3349457,0.6989594-0.5949783,1.1430969-0.7790833c0.4430847-0.1830597,0.9246826-0.2756195,1.4436951-0.2756195
		c0.4576569,0,0.882019,0.0873566,1.2762299,0.2621002c0.3941956,0.174736,0.7374573,0.4139786,1.0286865,0.7187347
		c0.2901917,0.3047562,0.5148621,0.6656952,0.6719208,1.0817413c0.1560211,0.4170914,0.2298737,0.8716125,0.2215271,1.3636093
		l-0.0135193,0.591835h-5.7643738l-0.3089142-1.102562h4.8771515l-0.2017822,0.2288284v-0.3224335
		c-0.0270538-0.2953949-0.1258545-0.5595856-0.2953949-0.7936249c-0.1695404-0.2319336-0.3858948-0.4149933-0.6448822-0.5502167
		c-0.260025-0.1341705-0.5429382-0.2017822-0.8466492-0.2017822c-0.4836578,0-0.8913879,0.0925598-1.222168,0.2766647
		c-0.3318024,0.1830902-0.5824738,0.4514389-0.7530518,0.8050766c-0.1695404,0.3546829-0.2548218,0.7905045-0.2548218,1.3105698
		c0,0.4930191,0.101944,0.9204941,0.3089142,1.2824478c0.2059326,0.362999,0.4971771,0.6438599,0.8726807,0.8404388
		c0.3765259,0.196579,0.8112946,0.2953873,1.3032684,0.2953873c0.3505249,0,0.6740112-0.0582428,0.9746094-0.174736
		c0.3005981-0.115448,0.6251068-0.3265991,0.9735413-0.6313553l0.7000122,0.980835
		c-0.2163239,0.2142563-0.477417,0.4035721-0.7873688,0.5647888c-0.3078766,0.1601715-0.6355133,0.2891693-0.9798279,0.382782
		C163.2877808,79.8054962,162.9497375,79.8522797,162.618988,79.8522797"/>
	<path d="M171.9696198,74.1961746h4.528717v1.3979568h-4.528717V74.1961746z M171.3112183,79.7182388v-9.4058762h5.9255981
		v1.3979263h-4.4735718v6.609993h4.4735718v1.3979568H171.3112183z"/>
	<path d="M182.2761383,78.6561432c0.4202118,0,0.792572-0.107132,1.1139679-0.3213882
		c0.3234863-0.2153091,0.5772552-0.5086365,0.7603455-0.8810043c0.1830597-0.3713226,0.2756195-0.794632,0.2756195-1.268959
		c0-0.4753036-0.0925598-0.8976059-0.2756195-1.2699738c-0.1830902-0.371315-0.4368591-0.6656952-0.7603455-0.8799515
		c-0.3213959-0.2153091-0.6937561-0.3224411-1.1139679-0.3224411c-0.4212494,0-0.7926025,0.107132-1.115036,0.3224411
		c-0.3234863,0.2142563-0.5762177,0.5086365-0.7603149,0.8799515c-0.1830597,0.3723679-0.2745972,0.7946701-0.2745972,1.2699738
		c0,0.4743271,0.0915375,0.8976364,0.2745972,1.268959c0.1840973,0.3723679,0.4368286,0.6656952,0.7603149,0.8810043
		C181.4835358,78.5490112,181.8548889,78.6561432,182.2761383,78.6561432 M182.0878754,79.8522797
		c-0.6448975,0-1.2200623-0.1591187-1.7266083-0.4763489c-0.506546-0.3182831-0.9069977-0.7530518-1.2023926-1.3033066
		c-0.2964478-0.5512619-0.4441376-1.1805191-0.4441376-1.8878326c0-0.7083282,0.1455994-1.3375854,0.4378815-1.8878021
		c0.2902222-0.5512619,0.6864929-0.9850235,1.1878204-1.303299c0.5023804-0.3182831,1.0713348-0.4774017,1.7068787-0.4774017
		c0.349472,0,0.6875,0.0561523,1.0140991,0.1684875c0.3266296,0.1123352,0.6209717,0.2641907,0.8809967,0.4566116
		c0.2589874,0.192421,0.4628754,0.4025497,0.6105652,0.6313782c0.1476898,0.2287979,0.2215271,0.4597244,0.2215271,0.6916656
		l-0.4025269,0.0270462v-4.7159348h1.3844147v9.9425659h-1.3844147V78.03936h0.2683563
		c0,0.2142639-0.0707245,0.427475-0.2142639,0.6376038c-0.1435394,0.2101059-0.3338928,0.405632-0.5710449,0.5845337
		c-0.2381592,0.1789017-0.5106964,0.3224411-0.8196106,0.4295654
		C182.7254486,79.7992401,182.4103241,79.8522797,182.0878754,79.8522797"/>
	<path d="M190.3509369,79.8522797c-0.5013275,0-0.9392242-0.1154404-1.3105316-0.3484268
		c-0.3713226-0.2329941-0.6584015-0.5606308-0.8591766-0.9818802c-0.2017822-0.4202042-0.3026581-0.9225922-0.3026581-1.5040131
		v-4.3539734h1.3843994v3.9774475c0,0.4118881,0.0644989,0.7686386,0.194519,1.0681915
		c0.1300201,0.3005981,0.3182831,0.531517,0.5647888,0.6916885c0.2454681,0.1612244,0.5439606,0.2423553,0.8924255,0.2423553
		c0.2600403,0,0.49823-0.0426331,0.713501-0.1279221c0.2142944-0.085289,0.3994141-0.2038803,0.5564728-0.3557358
		c0.157074-0.1529007,0.2808685-0.3359604,0.3703156-0.5512619c0.089447-0.2153091,0.1341705-0.4472504,0.1341705-0.698967
		v-4.2457962h1.3843994v7.0541229h-1.3843994v-1.4769669l0.2413025-0.162262
		c-0.107132,0.3318024-0.2881165,0.6313477-0.5439911,0.8996964c-0.254837,0.2694016-0.5574951,0.4826431-0.9069824,0.6397018
		C191.1300201,79.774292,190.7545013,79.8522797,190.3509369,79.8522797"/>
	<path d="M199.0040741,79.8522797c-0.653183,0-1.2387695-0.1612167-1.7536621-0.4836502
		c-0.5148468-0.3213882-0.9225769-0.7613678-1.2221375-1.3167953c-0.3005981-0.5543747-0.4503784-1.1774139-0.4503784-1.8670425
		c0-0.6895981,0.1497803-1.3126297,0.4503784-1.8680573c0.2995605-0.5554276,0.7072906-0.9943542,1.2221375-1.3167953
		c0.5148926-0.3224335,1.1004791-0.4836502,1.7536621-0.4836502c0.6271973,0,1.1982422,0.1279221,1.713089,0.3827438
		c0.5148621,0.2548599,0.9070129,0.6022491,1.175354,1.0422211l-0.7655182,0.9402695
		c-0.1435394-0.2069931-0.3265991-0.3942032-0.5512695-0.5647888c-0.2236328-0.1695328-0.4608002-0.3047562-0.7124939-0.4025192
		c-0.2507019-0.0988159-0.4920044-0.1476974-0.7249908-0.1476974c-0.4295654,0-0.8123474,0.1050339-1.1483002,0.3151627
		c-0.3369751,0.2111511-0.6032562,0.4992447-0.7998352,0.8664093c-0.1976318,0.3682022-0.2953949,0.7790756-0.2953949,1.236702
		c0,0.4566422,0.1019287,0.8664322,0.3089142,1.2294388c0.2059479,0.3619843,0.4784546,0.6511307,0.8196106,0.8664322
		c0.3401184,0.2153091,0.7166443,0.3224411,1.12854,0.3224411c0.2423401,0,0.4774323-0.0405655,0.7052155-0.1206512
		c0.2288208-0.0811386,0.4503784-0.2017899,0.6646423-0.3630066c0.2163239-0.1612167,0.417099-0.3577957,0.6053619-0.5907822
		l0.7655182,0.9402618c-0.2870789,0.4035721-0.6958466,0.7343292-1.2294312,0.993309
		C200.1305389,79.7222672,199.577179,79.8522797,199.0040741,79.8522797"/>
	<path d="M206.2727203,78.5760574c0.420166,0,0.7925568-0.1019211,1.1150055-0.3089142
		c0.3224335-0.2059402,0.5762482-0.4909286,0.7592621-0.8529129c0.1841125-0.3630066,0.27565-0.7769547,0.27565-1.2429276
		c0-0.4566422-0.0915375-0.865387-0.27565-1.2232132c-0.1830139-0.3578033-0.4368286-0.6407166-0.7592621-0.8466644
		c-0.3224487-0.2059402-0.6948395-0.3089142-1.1150055-0.3089142c-0.4119263,0-0.7769928,0.1029739-1.0952759,0.3089142
		c-0.3172302,0.2059479-0.5689392,0.4888611-0.7519989,0.8466644c-0.1840973,0.3578262-0.27565,0.766571-0.27565,1.2232132
		c0,0.4659729,0.0915527,0.879921,0.27565,1.2429276c0.1830597,0.3619843,0.4347687,0.6469727,0.7519989,0.8529129
		C205.4957275,78.4741364,205.8607941,78.5760574,206.2727203,78.5760574 M205.9097137,79.8522797
		c-0.5814514,0-1.1129456-0.1612167-1.5914307-0.4836502c-0.4794922-0.3213882-0.8622437-0.7613678-1.1493225-1.3167953
		c-0.2870789-0.5543747-0.4295654-1.181572-0.4295654-1.8805313c0-0.7073135,0.1455994-1.3365707,0.4368439-1.8878326
		c0.2901764-0.5512695,0.6854401-0.9839783,1.1815948-1.2970505c0.4971771-0.3130722,1.0546722-0.4701309,1.6725311-0.4701309
		c0.367157,0,0.7041626,0.0540848,1.0078735,0.1612167c0.3047333,0.107132,0.5710449,0.2579346,0.7998352,0.4503555
		c0.2277832,0.192421,0.417099,0.4150314,0.5648193,0.66465c0.1476746,0.2506714,0.238205,0.5200653,0.275589,0.8071442
		l-0.3099213-0.1081772v-1.8274918h1.3979187v7.0541229h-1.3979187V78.03936l0.3224335-0.0946579
		c-0.0530701,0.2423553-0.1632843,0.4774094-0.3286591,0.7052231c-0.1664581,0.2288284-0.3755188,0.4326706-0.632431,0.6115723
		c-0.2548218,0.1789017-0.5366974,0.3224411-0.8456116,0.4295654
		C206.5753784,79.7992401,206.2498322,79.8522797,205.9097137,79.8522797"/>
	<path d="M214.6974335,79.8522797c-0.6542664,0-1.2388306-0.1612167-1.7536926-0.4836502
		c-0.5148621-0.3213882-0.9225464-0.7613678-1.2231445-1.3167953c-0.2995911-0.5543747-0.4493408-1.1774139-0.4493408-1.8670425
		c0-0.6895981,0.1497498-1.3126297,0.4493408-1.8680573c0.3005981-0.5554276,0.7082825-0.9943542,1.2231445-1.3167953
		c0.5148621-0.3224335,1.0994263-0.4836502,1.7536926-0.4836502c0.6261444,0,1.1982117,0.1279221,1.7120514,0.3827438
		c0.5158691,0.2548599,0.9080048,0.6022491,1.1763611,1.0422211l-0.7654877,0.9402695
		c-0.1435394-0.2069931-0.3266296-0.3942032-0.5513-0.5647888c-0.2236633-0.1695328-0.461853-0.3047562-0.7124939-0.4025192
		c-0.2507019-0.0988159-0.4920044-0.1476974-0.7249908-0.1476974c-0.430603,0-0.8133545,0.1050339-1.1493225,0.3151627
		c-0.3359528,0.2111511-0.6022034,0.4992447-0.7988129,0.8664093c-0.1976318,0.3682022-0.2964172,0.7790756-0.2964172,1.236702
		c0,0.4566422,0.1029816,0.8664322,0.3089142,1.2294388c0.2059479,0.3619843,0.4795074,0.6511307,0.8206635,0.8664322
		c0.3400879,0.2153091,0.7166138,0.3224411,1.1284943,0.3224411c0.2423859,0,0.477478-0.0405655,0.7052612-0.1206512
		c0.2287903-0.0811386,0.4493408-0.2017899,0.6646118-0.3630066c0.2163544-0.1612167,0.4160767-0.3577957,0.6053925-0.5907822
		l0.7654877,0.9402618c-0.2870789,0.4035721-0.6968689,0.7343292-1.2294312,0.993309
		C215.8238983,79.7222672,215.2705078,79.8522797,214.6974335,79.8522797"/>
	<path d="M219.1174622,72.663765h1.3833313v7.0541534h-1.3833313V72.663765z M219.7893829,71.1056671
		c-0.2953949,0-0.5232391-0.0759277-0.6844177-0.2288284c-0.1612549-0.1518555-0.2423859-0.3671646-0.2423859-0.6448746
		c0-0.2600327,0.0822144-0.4701385,0.2486115-0.6313553c0.1653748-0.1612473,0.3921356-0.2423477,0.6781921-0.2423477
		c0.2953949,0,0.5242004,0.0769424,0.6854401,0.2288284c0.1611938,0.1518555,0.2423248,0.3681793,0.2423248,0.6448746
		c0,0.2600327-0.0832214,0.4701309-0.2496185,0.6324005C220.3021545,71.0245285,220.0764618,71.1056671,219.7893829,71.1056671"/>
	<path d="M224.8551788,71.5759888l-0.4565735-0.6854401l1.9210968-1.6797943l0.8736725,1.1014862L224.8551788,71.5759888z
		 M225.7954559,78.5895767c0.4212799,0,0.7978058-0.1050339,1.1285553-0.3151627
		c0.3318329-0.2111206,0.5918579-0.4981995,0.7790833-0.8601837c0.1893005-0.3630066,0.2776794-0.7727966,0.2693634-1.2294388
		c0.008316-0.4659729-0.0800629-0.8809738-0.2693634-1.2429276c-0.1872253-0.362999-0.4472504-0.646965-0.7790833-0.8529129
		c-0.3307495-0.2059402-0.7072754-0.3099594-1.1285553-0.3099594c-0.4212189,0-0.7988281,0.1060791-1.1358032,0.3162155
		c-0.335968,0.2100983-0.5980835,0.4971771-0.7853088,0.8601837c-0.1882324,0.362999-0.2776794,0.7717743-0.2683411,1.2294006
		c-0.0093384,0.4566422,0.0801086,0.8664322,0.2683411,1.2294388c0.1872253,0.3619843,0.4493408,0.6490631,0.7853088,0.8601837
		C224.9966278,78.4845428,225.3742371,78.5895767,225.7954559,78.5895767 M225.7954559,79.8522797
		c-0.6895752,0-1.3053741-0.1591187-1.8472748-0.4763489c-0.5419006-0.3182831-0.9693451-0.7530518-1.2824402-1.3033066
		c-0.3141327-0.5512619-0.4711914-1.1805191-0.4711914-1.8878326c0-0.7083282,0.1570587-1.3375854,0.4711914-1.8878021
		c0.3130951-0.5512619,0.7405396-0.9850235,1.2824402-1.303299c0.5419006-0.3182831,1.1576996-0.4774017,1.8472748-0.4774017
		c0.6813049,0,1.2929077,0.1591187,1.8348236,0.4774017c0.5419006,0.3182755,0.9694061,0.752037,1.2835236,1.303299
		c0.312027,0.5502167,0.4690857,1.1794739,0.4690857,1.8878021c0,0.7073135-0.1570587,1.3365707-0.4690857,1.8878326
		c-0.3141174,0.5502548-0.7416229,0.9850235-1.2835236,1.3033066
		C227.0883636,79.693161,226.4767609,79.8522797,225.7954559,79.8522797"/>
	<path d="M230.8874054,79.7182388v-7.0541611h1.3843994v1.4520111l-0.2413025,0.1601715
		c0.0884247-0.3130722,0.2631378-0.602211,0.5231781-0.8664017c0.260025-0.2641907,0.5689392-0.4794922,0.9278107-0.6448746
		c0.3578033-0.1654053,0.7249908-0.2486038,1.1015167-0.2486038c0.5377197,0,0.9849701,0.105072,1.3438416,0.3162155
		c0.3578033,0.2101059,0.6271667,0.5304489,0.8060608,0.9600143c0.178894,0.4295959,0.2683563,0.9714966,0.2683563,1.6257401
		v4.2998886h-1.3833313v-4.2062836c0-0.4025269-0.0540924-0.7353745-0.1612549-1.0006104
		c-0.1070862-0.2641907-0.2735443-0.4566116-0.4971466-0.5783081c-0.2246704-0.1206512-0.5013275-0.1716309-0.8331604-0.1539536
		c-0.2693634,0-0.5158691,0.0426636-0.7395325,0.1279526c-0.2236481,0.0852966-0.4191895,0.2038498-0.5845642,0.3557358
		c-0.1653748,0.1528702-0.2943115,0.3286591-0.3900452,0.5304413c-0.0935822,0.2017899-0.1404266,0.4191895-0.1404266,0.6521759
		v4.27285h-0.6854401h-0.3494873H230.8874054z"/>
	<path class="st0" d="M121.48069,76.5872192c0,0.6719513-0.1913757,1.2710495-0.5752029,1.7952728
		c-0.3827438,0.5242233-0.9007492,0.9340439-1.552887,1.230484c-0.6521759,0.2953949-1.3958664,0.4430923-2.2290039,0.4430923
		c-1.0224457,0-1.9263382-0.16436-2.7126541-0.4940643c-0.7863464-0.3286896-1.422905-0.7832108-1.9055099-1.3615189
		l1.8743057-1.613266c0.417099,0.4306183,0.8851318,0.7426758,1.4020844,0.9371567
		c0.5169525,0.1955643,1.0255585,0.2933273,1.5237885,0.2933273c0.1872101,0,0.3588409-0.0207901,0.5138397-0.0613556
		c0.1539154-0.0395508,0.2891388-0.1040192,0.4035721-0.1914062c0.1133499-0.0873566,0.1986389-0.1882629,0.2516785-0.3016129
		c0.0540924-0.1144333,0.0811386-0.2392426,0.0811386-0.3734131c0-0.2829208-0.1144028-0.5044785-0.342186-0.6656952
		c-0.1362686-0.0676117-0.3432541-0.1518555-0.6261749-0.2527313c-0.281868-0.100914-0.6448746-0.2049332-1.0890121-0.3120575
		c-0.6594391-0.1747437-1.2242279-0.3765259-1.6943665-0.6053543c-0.4711761-0.2288361-0.847702-0.4909286-1.1295776-0.7863235
		c-0.2693939-0.2829132-0.4711761-0.5928802-0.6053543-0.9277878c-0.1352158-0.3370056-0.2017822-0.7135315-0.2017822-1.1306229
		c0-0.4971771,0.11129-0.9444275,0.3328476-1.3407288s0.5304794-0.7395248,0.9277954-1.0287018
		c0.3963013-0.2891388,0.847702-0.5117111,1.3511353-0.6656647c0.5044479-0.1549988,1.0328293-0.2329865,1.5840912-0.2329865
		c0.5783081,0,1.1285629,0.0676117,1.653801,0.2028351c0.5252686,0.1341705,1.0193329,0.3224335,1.4822006,0.5647888
		c0.4638748,0.2413025,0.8643341,0.5304413,1.2002945,0.8674469l-1.6132278,1.7952728
		c-0.2423553-0.2153091-0.5148621-0.4170914-0.8175507-0.6063995c-0.3026657-0.1872177-0.6115799-0.3359604-0.9267502-0.4430923
		c-0.3172302-0.1071243-0.6095123-0.1612167-0.877861-0.1612167c-0.2153015,0-0.4067078,0.0166321-0.5751953,0.0499344
		c-0.1674728,0.0343094-0.309967,0.0904617-0.4233475,0.1715927c-0.1143951,0.081131-0.2017822,0.1789017-0.2631454,0.293335
		c-0.059288,0.1143951-0.0904922,0.2381897-0.0904922,0.3723602c0.0135193,0.1487503,0.0540848,0.2860336,0.1216965,0.4139862
		c0.0665665,0.1279221,0.1736984,0.2319412,0.3214264,0.312027c0.1351852,0.081131,0.3463364,0.1757889,0.6355057,0.2829132
		c0.290184,0.107132,0.6895981,0.2288284,1.2013474,0.3630066c0.6448746,0.174736,1.194046,0.3734131,1.6444321,0.5949402
		c0.4493408,0.2215652,0.8092346,0.4742966,1.078598,0.7561951c0.2288284,0.2423172,0.3973541,0.5148621,0.5044785,0.8175201
		C121.4276428,75.8914032,121.48069,76.2242203,121.48069,76.5872192 M106.7254333,77.0812836
		c-0.3837967,0.2486115-0.8300247,0.3734207-1.341774,0.3734207c-0.5106964,0-0.954834-0.1248093-1.3313599-0.3734207
		c-0.3754807-0.2485657-0.6719208-0.5949402-0.8872223-1.0390778c-0.2142639-0.4430847-0.3234863-0.9610901-0.3234863-1.5529175
		c0-0.591835,0.1092224-1.1098022,0.3234863-1.5528946c0.2153015-0.4441376,0.5117416-0.7873917,0.8872223-1.0287018
		c0.3765259-0.2423477,0.8206635-0.3640518,1.3313599-0.3640518c0.5117493,0,0.9579773,0.1217041,1.341774,0.3640518
		c0.3838272,0.2413101,0.6792221,0.5845642,0.8872299,1.0287018c0.2090836,0.4430923,0.3130722,0.9610596,0.3130722,1.5528946
		c0,0.5918274-0.1039886,1.1098328-0.3130722,1.5529175C107.4046555,76.4863434,107.1092606,76.8327179,106.7254333,77.0812836
		 M107.88517,70.5170364c-0.1944885-0.2662506-0.4129028-0.512764-0.6750336-0.7280655
		c-0.3297043-0.2694016-0.7104187-0.4774399-1.1399841-0.6251297c-0.4306183-0.1476974-0.90802-0.22258-1.4322433-0.22258
		c-0.9277878,0-1.7547073,0.2392426-2.4817581,0.7166443c-0.7249603,0.4774323-1.2980652,1.1326904-1.7141113,1.9668732
		c-0.4170914,0.8341827-0.6261749,1.7890167-0.6261749,2.8645096c0,1.0754852,0.2090836,2.0303497,0.6261749,2.864502
		c0.4160461,0.8341904,0.980835,1.4926147,1.6943665,1.9762726c0.7135315,0.4847031,1.5123215,0.7260056,2.4005966,0.7260056
		c0.4961624,0,0.9621353-0.076973,1.3917007-0.2319717c0.4306183-0.1539154,0.8237762-0.3588486,1.1805573-0.6146851
		c0.2849808-0.2049332,0.5242233-0.4451828,0.7363892-0.7062683v1.3511429h3.0652771V69.1638412H107.88517V70.5170364z
		 M97.5775299,64.2013931c0.3224411,0.2818756,0.4836578,0.6792221,0.4836578,1.1899185
		c0,0.4847031-0.1653748,0.8747559-0.4940643,1.1701431c-0.3297424,0.2964401-0.7769852,0.4441376-1.341774,0.4441376
		c-0.5783157,0-1.0286713-0.1383667-1.3521576-0.4139786c-0.3214188-0.27565-0.4826355-0.6750336-0.4826355-1.2003021
		c0-0.4701309,0.1633148-0.8570709,0.4940643-1.1597595c0.3286896-0.3026657,0.7759399-0.4534721,1.3407288-0.4534721
		C96.8036575,63.77808,97.2540512,63.9184761,97.5775299,64.2013931 M94.7129898,69.1638412h3.0455017v10.6914597h-3.0455017
		V69.1638412z M92.5838547,69.0026169c0.2090836,0.0395203,0.3942032,0.0873871,0.5544052,0.1414795l-0.8269119,3.3481598
		c-0.1476974-0.081131-0.3390732-0.1518555-0.5741501-0.2121964c-0.235054-0.0603104-0.4878159-0.0904922-0.7561646-0.0904922
		c-0.2964401,0-0.5783081,0.0540848-0.847702,0.1612167c-0.2694016,0.1081772-0.4971848,0.2621231-0.6854477,0.463913
		c-0.1882553,0.2017822-0.3359528,0.4368362-0.4441299,0.7062302c-0.107132,0.2693939-0.1601715,0.5647888-0.1601715,0.8872223
		v5.4461365h-3.0662994V69.1638412h2.9040298l0.0592957,1.713089c0.0998306-0.1601715,0.192421-0.3245316,0.3141174-0.472229
		c0.3692245-0.4503555,0.8029556-0.8071365,1.3001633-1.0692368c0.4981918-0.2621231,1.0151443-0.3942032,1.5539398-0.3942032
		C92.1511765,68.9412613,92.3758469,68.9620514,92.5838547,69.0026169 M80.1085815,69.1638412h3.0455017v10.6904449h-2.884285
		l-0.0800858-1.4624252c-0.0915451,0.1258545-0.1726761,0.255867-0.2829208,0.3734131
		c-0.3765259,0.4035721-0.8269119,0.7197495-1.3511353,0.9485779c-0.525238,0.2277832-1.082756,0.3422165-1.6745911,0.3422165
		c-0.7936172,0-1.4696884-0.1705856-2.0272141-0.5138397c-0.557518-0.3432312-0.9881287-0.8331375-1.2907944-1.4728088
		c-0.3026886-0.638649-0.4545441-1.4083328-0.4545441-2.309082v-6.5964966h3.0455017v6.1315689
		c0,0.4711456,0.0780182,0.8716049,0.2329865,1.2002945c0.1539459,0.3297119,0.3734131,0.5824738,0.6552887,0.7572098
		c0.2829132,0.1747437,0.6188736,0.2621002,1.0089188,0.2621002c0.3089142,0,0.587677-0.0467911,0.8372955-0.141449
		c0.2475586-0.093605,0.4597549-0.2288284,0.6355133-0.4035645c0.1737213-0.1747437,0.3151703-0.382782,0.4233475-0.6251297
		c0.1071243-0.2423248,0.1612167-0.5044479,0.1612167-0.7863159V69.1638412z M69.4784775,69.1638412h2.138504v2.7032852h-2.138504
		v7.9871597h-3.0455017v-7.9871597h-1.9367142v-2.7032852h1.9367142v-2.7032928h3.0455017V69.1638412z M63.6288071,75.588707
		c0.1081772,0.3026962,0.1612206,0.6355133,0.1612206,0.9985123c0,0.6719513-0.1913757,1.2710495-0.5741539,1.7952728
		c-0.3837929,0.5242233-0.9017944,0.9340439-1.553936,1.230484c-0.6521759,0.2953949-1.3958626,0.4430923-2.2290001,0.4430923
		c-1.0214005,0-1.9263382-0.16436-2.7137032-0.4940643c-0.7863464-0.3286896-1.4208107-0.7832108-1.9055138-1.3615189
		l1.8753624-1.613266c0.4170914,0.4306183,0.885128,0.7426758,1.4031296,0.9371567
		c0.516922,0.1955643,1.0255585,0.2933273,1.5227356,0.2933273c0.1882629,0,0.35989-0.0207901,0.5138092-0.0613556
		c0.1549988-0.0395508,0.2891731-0.1040192,0.4046173-0.1914062c0.1133842-0.0873566,0.197628-0.1882629,0.2506676-0.3016129
		c0.0540886-0.1144333,0.0811348-0.2392426,0.0811348-0.3734131c0-0.2829208-0.114399-0.5044785-0.3432274-0.6656952
		c-0.1341743-0.0676117-0.3422127-0.1518555-0.6251335-0.2527313c-0.281868-0.100914-0.6448708-0.2049332-1.0890083-0.3120575
		c-0.6594429-0.1747437-1.2242317-0.3765259-1.6943665-0.6053543c-0.47118-0.2288361-0.8477058-0.4909286-1.1295776-0.7863235
		c-0.2693939-0.2829132-0.4701309-0.5928802-0.6053543-0.9277878c-0.1352196-0.3370056-0.2017822-0.7135315-0.2017822-1.1306229
		c0-0.4971771,0.1112862-0.9444275,0.3328476-1.3407288c0.2225761-0.3963013,0.5304413-0.7395248,0.9277916-1.0287018
		c0.3962669-0.2891388,0.8466568-0.5117111,1.3521538-0.6656647c0.5034294-0.1549988,1.0318108-0.2329865,1.5830765-0.2329865
		c0.5783081,0,1.1295776,0.0676117,1.6537971,0.2028351c0.5252686,0.1341705,1.0182877,0.3224335,1.4832153,0.5647888
		c0.4628677,0.2413025,0.8643723,0.5304413,1.1992836,0.8674469l-1.6121826,1.7952728
		c-0.2434006-0.2153091-0.5148926-0.4170914-0.8175545-0.6063995c-0.3037071-0.1872177-0.6116066-0.3359604-0.9277916-0.4430923
		c-0.3172302-0.1071243-0.6095123-0.1612167-0.877861-0.1612167c-0.2153053,0-0.4067116,0.0166321-0.5751991,0.0499344
		c-0.1674728,0.0343094-0.3089142,0.0904617-0.4233437,0.1715927c-0.115448,0.081131-0.201786,0.1789017-0.2631454,0.293335
		c-0.0592918,0.1143951-0.0904961,0.2381897-0.0904961,0.3723602c0.0135231,0.1487503,0.0551376,0.2860336,0.1217003,0.4139862
		c0.0676117,0.1279221,0.1747398,0.2319412,0.3224373,0.312027c0.1341743,0.081131,0.3463707,0.1757889,0.6355095,0.2829132
		c0.2891693,0.107132,0.6885834,0.2288284,1.2003288,0.3630066c0.6448746,0.174736,1.194046,0.3734131,1.6433868,0.5949402
		c0.4503899,0.2215652,0.8102531,0.4742966,1.0796471,0.7561951C63.353157,75.013504,63.5216789,75.2860489,63.6288071,75.588707
		 M45.8925552,74.5090637l0.7520027-1.9970627c0.1071281-0.3224335,0.2225761-0.6417313,0.3422127-0.9579468
		c0.1217003-0.316185,0.2360992-0.6386185,0.3432274-0.9683609c0.1029701-0.3141174,0.197628-0.6271896,0.2881241-0.9413071
		c0.0915451,0.2995453,0.1851501,0.6053543,0.287075,0.9215317c0.114399,0.3567886,0.2246704,0.6989975,0.3328476,1.0287018
		c0.107132,0.3297043,0.2080078,0.6219864,0.3026619,0.877861l0.7624168,2.0365829H45.8925552z M46.2618103,65.7345428
		l-5.5678291,14.1197433h3.1869774l1.0619659-2.8239441h5.3046227l1.0567932,2.8239441h3.2868042L49.06493,65.7345428H46.2618103z
		 M116.8385849,57.0110016c0.2226105-0.1258583,0.4951172-0.189312,0.8175507-0.189312
		c0.2142639,0,0.4118881,0.0457726,0.5928802,0.1383324c0.1799469,0.0915451,0.3255463,0.2163544,0.4368362,0.3734131
		c0.1113205,0.1570625,0.1705856,0.3359604,0.177887,0.5356827v0.0343132h-2.6440277
		c0.0280914-0.1237946,0.0624313-0.2423515,0.1123352-0.3453217
		C116.447525,57.3199158,116.6160126,57.1379051,116.8385849,57.0110016 M116.0959473,61.2984161
		c0.4951096,0.2683449,1.0754852,0.4025192,1.7442932,0.4025192c0.2756195,0,0.55336-0.0343437,0.8341827-0.1029701
		c0.2797775-0.069706,0.5533295-0.1685181,0.8227234-0.2995491c0.2683868-0.1300163,0.5221634-0.2954254,0.7603531-0.4951172
		l-0.8289795-1.1618271c-0.2465057,0.1997223-0.4743195,0.3370094-0.6844177,0.4139824
		c-0.2121658,0.0769768-0.4514084,0.114399-0.7197571,0.114399c-0.3837967,0-0.7166443-0.0707207-0.9953995-0.2121658
		c-0.2808228-0.1414719-0.4951172-0.3432579-0.6448746-0.6043358c-0.0769806-0.1331291-0.1321106-0.2797775-0.1695404-0.4368362
		h4.27285l0.0114288-0.4951172c0.0072632-0.4451523-0.0582504-0.8539276-0.1955338-1.2262955
		c-0.1383667-0.3713188-0.3359604-0.6937561-0.5928802-0.9662933c-0.2569199-0.2725067-0.5637436-0.4857178-0.9205246-0.6386223
		c-0.3567505-0.1539459-0.7426376-0.2309227-1.1566238-0.2309227c-0.4534988,0-0.869545,0.079071-1.249176,0.2361298
		c-0.3796692,0.1580772-0.7083282,0.3806839-0.9839783,0.6677589c-0.2766647,0.2880936-0.4919739,0.6271935-0.6448746,1.0182915
		c-0.1529007,0.3910637-0.2298737,0.8216782-0.2298737,1.2897453c0,0.6064034,0.1383286,1.1451645,0.4139786,1.6163445
		C115.2149734,60.6597633,115.6018753,61.0300331,116.0959473,61.2984161 M111.6473083,59.4396896
		c-0.1227112,0.2569199-0.2922745,0.4587059-0.5117416,0.6043053c-0.2184219,0.1456337-0.4742966,0.2184486-0.7655258,0.2184486
		c-0.2985077,0-0.5564728-0.0728149-0.7707367-0.2184486c-0.2142563-0.1455994-0.3837891-0.3473854-0.5065384-0.6043053
		c-0.1227493-0.2569237-0.1841049-0.5585365-0.1841049-0.9038582c0-0.3453255,0.0613556-0.6459236,0.1841049-0.9028435
		s0.2922821-0.4587059,0.5065384-0.6043091c0.2142639-0.1456299,0.472229-0.2184181,0.7707367-0.2184181
		c0.2912292,0,0.5471039,0.0727882,0.7655258,0.2184181c0.2194672,0.1456032,0.3890305,0.3473892,0.5117416,0.6043091
		c0.1237946,0.2569199,0.1851578,0.557518,0.1851578,0.9028435
		C111.8324661,58.8811531,111.7711029,59.182766,111.6473083,59.4396896 M113.5237198,61.5865059v-8.5165482h-1.7495041v3.0423584
		c-0.0915451-0.0977669-0.1934662-0.1903267-0.3099594-0.2756195c-0.2080078-0.1487427-0.4389343-0.2662849-0.6958542-0.3505287
		c-0.2579346-0.0842438-0.5294266-0.1269035-0.8123093-0.1269035c-0.5377808,0-1.0131149,0.1383324-1.4270706,0.4150276
		c-0.4139786,0.2756195-0.7426682,0.6521454-0.9839706,1.1274834c-0.2413025,0.476387-0.3630066,1.0203819-0.3630066,1.6340561
		c0,0.6219864,0.1217041,1.1690941,0.3630066,1.640274c0.2413025,0.472229,0.5699921,0.8445969,0.9839706,1.1160545
		c0.4139557,0.2735558,0.8861771,0.4087753,1.4156113,0.4087753c0.2839661,0,0.5543747-0.0395164,0.8112946-0.1206512
		c0.2569199-0.0800858,0.4847031-0.1893082,0.6843948-0.3276405c0.160202-0.11129,0.2902145-0.2361298,0.4035721-0.3682098
		l0.0457687,0.7020721H113.5237198z M101.110817,59.3876953c-0.1268768,0.2537766-0.3047562,0.4503555-0.5345993,0.5928802
		c-0.2298813,0.1424904-0.4868011,0.2132111-0.7707367,0.2132111c-0.2912292,0-0.5502472-0.0707207-0.7769852-0.2132111
		c-0.2267609-0.1425247-0.4056625-0.3391037-0.535675-0.5928802c-0.1300201-0.2527618-0.1955338-0.5367279-0.1955338-0.8518639
		c0-0.3214226,0.0655136-0.6095161,0.1955338-0.8633232c0.1300125-0.2527313,0.3089142-0.4524536,0.535675-0.5980568
		c0.226738-0.1456337,0.4857559-0.2184486,0.7769852-0.2184486c0.2839355,0,0.5408554,0.0728149,0.7707367,0.2184486
		c0.2298431,0.1456032,0.4077225,0.3432274,0.5345993,0.5928802c0.1269073,0.2496223,0.1872482,0.5398102,0.1789322,0.8684998
		C101.2980652,58.8509674,101.2377243,59.1349335,101.110817,59.3876953 M102.6304703,60.1698532
		c0.2808228-0.4742928,0.4202042-1.0193024,0.4202042-1.6340218c0-0.6136742-0.1393814-1.1576691-0.4202042-1.6340561
		c-0.279808-0.475338-0.6656952-0.8518639-1.1566467-1.1274834c-0.4909286-0.2766953-1.0463486-0.4150276-1.6683426-0.4150276
		c-0.6292877,0-1.1888657,0.1383324-1.6808395,0.4150276c-0.4909592,0.2756195-0.8789062,0.6521454-1.1618271,1.1274834
		c-0.2839661,0.476387-0.4264603,1.0203819-0.4264603,1.6340561c0,0.6147194,0.1424942,1.159729,0.4264603,1.6340218
		c0.2829208,0.476387,0.6708679,0.8508492,1.1618271,1.1223068c0.4919739,0.2735558,1.0515518,0.4087753,1.6808395,0.4087753
		c0.621994,0,1.1774139-0.1352196,1.6683426-0.4087753C101.9647751,61.0207024,102.3506622,60.6462402,102.6304703,60.1698532
		 M93.6593781,59.4396896c-0.1227493,0.2569199-0.293335,0.4587059-0.5117493,0.6043053
		c-0.2194672,0.1456337-0.4743271,0.2184486-0.766571,0.2184486c-0.297493,0-0.5554276-0.0728149-0.769722-0.2184486
		c-0.2153015-0.1455994-0.3837891-0.3473854-0.5075531-0.6043053c-0.1217041-0.2569237-0.1841049-0.5585365-0.1841049-0.9038582
		c0-0.3453255,0.0624008-0.6459236,0.1841049-0.9028435c0.123764-0.2569199,0.2922516-0.4587059,0.5075531-0.6043091
		c0.2142944-0.1456299,0.472229-0.2184181,0.769722-0.2184181c0.292244,0,0.5471039,0.0727882,0.766571,0.2184181
		c0.2184143,0.1456032,0.3889999,0.3473892,0.5117493,0.6043091c0.1237564,0.2569199,0.1840668,0.557518,0.1840668,0.9028435
		C93.8434448,58.8811531,93.7831345,59.182766,93.6593781,59.4396896 M95.5357513,61.5865059v-8.5165482h-1.7495041v3.0423584
		c-0.0925598-0.0977669-0.1944809-0.1903267-0.3109741-0.2756195c-0.2080383-0.1487427-0.4389648-0.2662849-0.6958542-0.3505287
		c-0.2579727-0.0842438-0.5283813-0.1269035-0.8123474-0.1269035c-0.5366974,0-1.0120316,0.1383324-1.427063,0.4150276
		c-0.4139481,0.2756195-0.7426376,0.6521454-0.9839401,1.1274834c-0.2413101,0.476387-0.3619919,1.0203819-0.3619919,1.6340561
		c0,0.6219864,0.1206818,1.1690941,0.3619919,1.640274c0.2413025,0.472229,0.5699921,0.8445969,0.9839401,1.1160545
		c0.4150314,0.2735558,0.8862076,0.4087753,1.4156342,0.4087753c0.2849808,0,0.5543823-0.0395164,0.8113022-0.1206512
		c0.2579346-0.0800858,0.4857178-0.1893082,0.6854401-0.3276405c0.1591263-0.11129,0.2891388-0.2361298,0.4025192-0.3682098
		l0.0467911,0.7020721H95.5357513z M84.9701462,60.2166748c-0.2902145,0-0.5439987-0.0707245-0.7593002-0.2132454
		c-0.2142639-0.1414413-0.382782-0.3390694-0.506546-0.5928497c-0.1227493-0.2527618-0.1830597-0.5481529-0.1830597-0.8851624
		c0-0.3380203,0.0603104-0.6334457,0.1830597-0.8872223c0.123764-0.2527657,0.2922821-0.4482956,0.506546-0.586628
		c0.2153015-0.1383324,0.4690857-0.2069931,0.7593002-0.2069931c0.2922516,0,0.5471115,0.0686607,0.7655258,0.2069931
		c0.2194672,0.1383324,0.3879547,0.3338623,0.5075912,0.586628c0.1185532,0.2537766,0.1768036,0.549202,0.1768036,0.8872223
		c0,0.3370094-0.0582504,0.6324005-0.1768036,0.8851624c-0.1196365,0.2537804-0.2881241,0.4514084-0.5075912,0.5928497
		C85.5172577,60.1459503,85.2623978,60.2166748,84.9701462,60.2166748 M86.3753433,60.7970467v0.7894592h1.7494965v-6.100338
		h-1.7276611v0.789463c-0.11129-0.1560135-0.2319412-0.3068542-0.3848419-0.4327126
		c-0.1882629-0.1528702-0.4046173-0.2725067-0.6500778-0.3567505c-0.2465134-0.0842438-0.5190201-0.1269035-0.8175201-0.1269035
		c-0.5294266,0-1.0016556,0.1373177-1.4156342,0.4087753c-0.4139557,0.2725067-0.7405777,0.6469688-0.9787445,1.1223068
		c-0.237175,0.476387-0.356781,1.0203552-0.356781,1.6350708c0,0.6136742,0.119606,1.1576691,0.356781,1.6340561
		c0.2381668,0.475338,0.5606308,0.8508186,0.9673157,1.1274834c0.4066772,0.2756462,0.8632889,0.4139786,1.3688126,0.4139786
		c0.2839355,0,0.5491714-0.0436745,0.7946396-0.1321106c0.2465057-0.0884018,0.4701309-0.204895,0.6740112-0.3505287
		C86.1215591,61.0986938,86.2526245,60.9509964,86.3753433,60.7970467 M76.7177505,57.6496201
		c0.1237946-0.2527313,0.2943802-0.4482956,0.5128021-0.586628c0.2184143-0.1383324,0.4742889-0.2069893,0.7655258-0.2069893
		c0.2985306,0,0.5554199,0.0686569,0.7717743,0.2069893c0.2142639,0.1383324,0.3837967,0.3338966,0.5054932,0.586628
		c0.1227493,0.2538109,0.1851578,0.549202,0.1851578,0.8862114c0,0.3307533-0.0624084,0.6219864-0.1851578,0.8747482
		c-0.1216965,0.2537804-0.2922821,0.4493103-0.5117416,0.587677c-0.2184219,0.1372833-0.4732437,0.2069588-0.7655258,0.2069588
		c-0.2912369,0-0.5471115-0.0696754-0.7655258-0.2069588c-0.2184219-0.1383667-0.3890076-0.3338966-0.5128021-0.587677
		c-0.1216965-0.2527618-0.1820068-0.5439949-0.1820068-0.8747482C76.5357437,58.198822,76.5960541,57.9034309,76.7177505,57.6496201
		 M76.5918961,60.9364281c0.0073013,0.0073013,0.0104141,0.0156174,0.0176773,0.0228844
		c0.2184525,0.2184486,0.4878464,0.3952522,0.8050766,0.5283813c0.3182831,0.1352196,0.6511307,0.201786,0.9964523,0.201786
		c0.5294266,0,0.9985123-0.1362381,1.4093552-0.4087448c0.4098206-0.271492,0.7343216-0.6459236,0.9725189-1.1212616
		c0.2371445-0.476387,0.356781-1.0172424,0.356781-1.623642c0-0.6209717-0.1196365-1.1680794-0.356781-1.6392632
		c-0.2381973-0.4721947-0.5606308-0.8445625-0.9673157-1.1170692c-0.4066772-0.271492-0.873703-0.4077263-1.4031296-0.4077263
		c-0.3536377,0-0.6875381,0.0624046-1.0016556,0.1892776c-0.3151398,0.1269035-0.5772629,0.2953911-0.7894287,0.5065422
		c-0.0395508,0.0395508-0.0613861,0.0832253-0.0957031,0.1248093l-0.0353622-0.706234h-1.6579514v8.6320267h1.7494659V60.9364281z
		 M71.5972061,54.0185394c-0.1840744-0.1570625-0.2766647-0.3848419-0.2766647-0.6843948
		c0-0.2683487,0.093605-0.4899063,0.2829132-0.6615067c0.1872177-0.1726761,0.4430923-0.2590141,0.7655258-0.2590141
		c0.3297424,0,0.5866318,0.0800858,0.7707367,0.2413368c0.1841049,0.1612167,0.2756424,0.3879509,0.2756424,0.679184
		c0,0.27565-0.093605,0.4992752-0.281868,0.6677628s-0.4430847,0.2527618-0.7645111,0.2527618
		C72.0382309,54.2546692,71.781311,54.1766472,71.5972061,54.0185394 M71.5056915,55.4861679h1.7369919v6.100338h-1.7369919
		V55.4861679z M65.2669907,60.1594734c-0.2693939-0.476387-0.4025269-1.0172424-0.4025269-1.623642
		c0-0.6053543,0.1331329-1.1483078,0.4025269-1.6278038c0.2683792-0.479496,0.634491-0.8581161,1.0983734-1.1337357
		c0.463913-0.2766953,0.9922943-0.4150276,1.5830765-0.4150276c0.5450439,0,1.0432663,0.0988121,1.4957199,0.2943764
		c0.4535065,0.1955338,0.810257,0.4690857,1.070282,0.8227272l-0.954834,1.1275139
		c-0.0998611-0.1300163-0.2288284-0.2527657-0.3858871-0.3682098c-0.1570587-0.115448-0.3255463-0.2028351-0.5054932-0.2641907
		c-0.1809921-0.0613899-0.3671646-0.0925941-0.5585709-0.0925941c-0.3068161,0-0.5751648,0.0717697-0.8060913,0.2132454
		c-0.2298737,0.1414452-0.4118881,0.3370056-0.5460587,0.586628c-0.1352234,0.2496185-0.2017822,0.5314903-0.2017822,0.8466568
		c0,0.3141212,0.0665588,0.595993,0.2017822,0.8445969c0.1341705,0.2506676,0.3182755,0.4472466,0.5523148,0.5928497
		c0.2329865,0.1466789,0.5002899,0.2194977,0.7998352,0.2194977c0.1986771,0,0.3848724-0.0270462,0.5585709-0.0811348
		c0.1726456-0.0530739,0.3328476-0.1341743,0.482605-0.2413368c0.1497955-0.1071281,0.286026-0.2381592,0.4087753-0.3910637
		l0.9444275,1.1503677c-0.2621002,0.3297386-0.6219864,0.5928802-1.082756,0.788414
		c-0.4597549,0.1955643-0.9506836,0.2933273-1.4728394,0.2933273c-0.5907822,0-1.1191635-0.1383324-1.5830765-0.4139786
		C65.9014816,61.0102921,65.5353699,60.6348114,65.2669907,60.1594734 M63.6319199,56.476368
		c0.1622658,0.368206,0.2423515,0.8248177,0.2423515,1.3698654v3.7402725h-1.7495041v-3.6029892
		c0-0.2600327-0.0364075-0.4774323-0.1091919-0.6500816c-0.0728149-0.1726761-0.1841049-0.3005981-0.3338966-0.3858871
		c-0.1487427-0.0842438-0.3359566-0.1217003-0.557518-0.114399c-0.1684875,0-0.32761,0.0280609-0.4721985,0.0863075
		c-0.1466484,0.0572319-0.2725067,0.1362686-0.3796654,0.2361298c-0.1081467,0.0988121-0.192421,0.2142601-0.2527313,0.3442764
		c-0.0624046,0.1310616-0.0936089,0.2725067-0.0936089,0.4264526v3.6601906h-0.8622742h-0.5065422h-0.3682098v-6.100338h1.6579552
		l0.0353622,0.787365c0.0426598-0.0530396,0.0759583-0.1091919,0.1248436-0.1601715
		c0.2225761-0.2257156,0.487812-0.4087753,0.794632-0.5460587c0.3058052-0.1383324,0.6251297-0.2080383,0.9548378-0.2080383
		c0.4597511,0,0.8477058,0.0946541,1.1618233,0.2818718C63.2335548,55.8293991,63.4717484,56.1081581,63.6319199,56.476368
		 M54.8511772,55.4861679h1.7380447v6.100338h-1.7380447V55.4861679z M54.9426918,54.0185394
		c-0.1841049-0.1570625-0.2756195-0.3848419-0.2756195-0.6843948c0-0.2683487,0.0936089-0.4899063,0.2818718-0.6615067
		c0.1882629-0.1726761,0.4430885-0.2590141,0.7655258-0.2590141c0.3297386,0,0.586628,0.0800858,0.7707329,0.2413368
		c0.1841049,0.1612167,0.2766647,0.3879509,0.2766647,0.679184c0,0.27565-0.0946236,0.4992752-0.2818718,0.6677628
		c-0.1892776,0.1684875-0.4430885,0.2527618-0.7655258,0.2527618
		C55.3847656,54.2546692,55.1267967,54.1766472,54.9426918,54.0185394 M51.5019684,61.5865059h-1.7495041v-6.100338h1.657959
		l0.0343132,0.9766769c0.0561829-0.0915146,0.1092224-0.1841049,0.1778831-0.2693977
		c0.2111473-0.2568893,0.4586716-0.4597206,0.7426376-0.6095123c0.2839661-0.1497574,0.579361-0.2246704,0.8861771-0.2246704
		c0.1383667,0,0.267334,0.0125084,0.385891,0.0343437c0.1185875,0.0239029,0.2246704,0.0509491,0.3162155,0.0811348
		l-0.47118,1.9106865c-0.0852928-0.0457382-0.1945152-0.0863075-0.3286896-0.1206512
		c-0.1341743-0.0353584-0.2777138-0.0519943-0.4316292-0.0519943c-0.1685219,0-0.3297386,0.0301552-0.4836884,0.0915146
		c-0.1528702,0.0624352-0.2828865,0.1497917-0.3910637,0.2652359c-0.107132,0.1154785-0.1914062,0.2496529-0.2538109,0.4025536
		c-0.0603104,0.1539192-0.0915108,0.3224373-0.0915108,0.5065422V61.5865059z M44.3552475,55.1762085h1.391674
		c0.1851501,0,0.348465,0.0395164,0.4899063,0.1206512c0.1414757,0.0800858,0.2548294,0.1955643,0.3390732,0.3442764
		c0.0842743,0.1497917,0.1258545,0.3245316,0.1258545,0.5242538c0,0.199688-0.0415802,0.3754768-0.1258545,0.5293961
		c-0.0842438,0.1539497-0.1975975,0.274601-0.3390732,0.3630028c-0.1414413,0.0884323-0.3047562,0.1321106-0.4899063,0.1321106
		h-1.391674V55.1762085z M44.3781357,58.8353806h1.6101227c0.4919701,0,0.9329643-0.1185875,1.3240585-0.3567505
		c0.391098-0.237175,0.7031212-0.5596123,0.9319496-0.9662933c0.2309265-0.4066811,0.3463707-0.8632927,0.3463707-1.3698349
		c0-0.4992714-0.1154442-0.9454727-0.3463707-1.3407249c-0.2288284-0.3952522-0.5408516-0.7062645-0.9319496-0.9329987
		c-0.3910942-0.2257156-0.8320885-0.3390999-1.3240585-0.3390999h-3.4521828v8.0568275h1.8420601V58.8353806z"/>
	<path class="st1" d="M23.3821201,67.4601059l-1.0453339,1.4093857c-0.2288284,0.307869-0.6677589,0.3650665-0.968359,0.1258621
		l-0.9787693-0.780098h-4.0824871v8.1473236l0.8383427,1.0546646c0.2371464,0.297493,0.0499306,0.7395325-0.3297367,0.778038
		c-1.0973272,0.1091919-2.2029705,0.1091919-3.3002977,0c-0.3796682-0.0385056-0.5668831-0.480545-0.3297377-0.778038
		l0.8383427-1.0546646v-8.1473236H9.9426126l-0.9797859,0.780098c-0.3005981,0.2392044-0.7395287,0.1820068-0.9673104-0.1258621
		l-1.0463805-1.4093857c-0.1778512-0.2402496-0.1778512-0.567894,0-0.8091965l1.0463805-1.4083405
		c0.2277818-0.307869,0.6667123-0.365097,0.9673104-0.1258545l0.9797859,0.7790451h4.0814714v-5.3566475l-0.7977762-1.0026741
		c-0.2392406-0.3005981-0.1820097-0.7385139,0.1258583-0.9673424l1.4093838-1.0463486
		c0.2392092-0.1788979,0.5689468-0.1788979,0.8081551,0l1.4093847,1.0463486
		c0.3078671,0.2288284,0.365099,0.6667442,0.1258583,0.9673424l-0.7977772,1.0026741v5.3566475h4.0824871l0.9787693-0.7790451
		c0.3006001-0.2392426,0.7395306-0.1820145,0.968359,0.1258545l1.0453339,1.4083405
		C23.5599709,66.8922119,23.5599709,67.2198563,23.3821201,67.4601059 M20.7162533,71.2919617
		c-0.0644684,0.2017822-0.1757565,0.3661118-0.3338642,0.4888611c-0.1622658,0.1268692-0.3713188,0.192421-0.6219883,0.192421
		h-0.9610882c-0.2517147,0-0.4618168-0.0655518-0.6251297-0.1934738c-0.1591244-0.1279526-0.2683487-0.2933273-0.3297062-0.4930191
		c-0.0509777-0.1653748-0.0769749-0.3474121-0.0769749-0.5419006c-0.0010471-0.1997223,0.0291386-0.3900452,0.0894489-0.5585632
		c0.0561829-0.1518555,0.1227474-0.2849808,0.1997223-0.3994141c0.0707207-0.1040192,0.1892776-0.16642,0.315136-0.16642h1.82127
		c0.1258583,0,0.2454624,0.0624008,0.3151684,0.1674652c0.0759277,0.1133881,0.1404266,0.2444153,0.1986732,0.401474
		c0.0592632,0.1726837,0.0904655,0.3578339,0.0904655,0.5554581C20.7973862,70.9403839,20.7703419,71.1244888,20.7162533,71.2919617
		 M12.3255606,71.9534683c-0.0197754,0.0207901-0.0436773,0.0364075-0.0707216,0.0457687
		c0.0207911,0.0842438-0.3910952,0.0748825-0.4534998,0.0166321l-0.2350826-0.0831909
		c-0.0415821-0.0093689-0.1674404-0.0592957-0.2080069-0.0686646c-0.3307533-0.0759201-0.6740131-0.0748749-1.0037193,0.0083237
		c-0.0270443,0.0062485-0.1061134,0.0395126-0.1341734,0.0457687l-0.3120575,0.11129
		c-0.0509462,0.0478363-0.3931589,0.0790329-0.4035702,0.0104065c-0.0676107-0.0218353-0.118557-0.0759277-0.1445856-0.1414719
		c-0.0509462-0.0624084-0.016633-0.2381897,0.0301867-0.3182755l0.5876751-1.015152l0.6375732-1.0994186
		c0.1185884-0.2069931,0.4129333-0.2069931,0.5325699,0l0.6344624,1.0994186l0.5710421,0.9922638
		C12.4171047,71.6674347,12.4295797,71.907692,12.3255606,71.9534683 M25.9928169,53.5213623v0.0010452H4.3384356v-0.0010452
		H2.0178928v21.6544113c0,2.2695618,1.0879626,4.2863693,2.7698531,5.5563736
		c1.1649399,0.8809662,2.6169853,1.4041748,4.1906981,1.4041748c1.6891594,0,3.2524614,0.5408554,4.5235128,1.4603271
		c0.6344624,0.4566116,1.1950932,1.0078812,1.6641788,1.6330109c0.46807-0.6251297,1.029747-1.1763992,1.6642094-1.6340561
		c1.2710514-0.9184265,2.8343544-1.4592819,4.5224667-1.4592819c1.5737133,0,3.0247097-0.5232086,4.1917114-1.4041748
		c1.6808739-1.2710571,2.7677898-3.2868118,2.7677898-5.5563736V53.5213623H25.9928169z M27.6466484,44.1290131
		c-0.4243927-0.4233131-1.0068626-0.6843948-1.6517353-0.6843948c-1.2907963,0-2.3361282,1.0453339-2.3361282,2.335083v2.3361282
		h2.3361282c1.2897472,0,2.3350811-1.0453339,2.3350811-2.3361282
		C28.3299942,45.1348267,28.0689144,44.5513115,27.6466484,44.1290131 M7.4317756,51.9830093h15.4666882v-2.3205109H7.4317756
		V51.9830093z M15.9254398,45.0536919v3.0621376h3.06423c1.7057934,0,3.08918-1.3823395,3.08918-3.088131v-3.0631866h-3.06423
		C17.3087959,41.9645119,15.9254398,43.3478661,15.9254398,45.0536919 M11.2542305,41.9645119h-3.06423v3.0631866
		c0,1.7057915,1.3833876,3.088131,3.0902271,3.088131h3.0631828v-3.0621376
		C14.3434105,43.3478661,12.9600229,41.9645119,11.2542305,41.9645119 M16.8927517,39.3236275L15.47194,37.9028168
		c-0.1684875-0.1674728-0.4430895-0.1674728-0.611577,0l-1.4218588,1.4208107c-0.168519,0.1695328-0.168519,0.4430885,0,0.6126251
		l1.4218588,1.4208412c0.1684875,0.1674385,0.4430895,0.1674385,0.611577,0l1.4208117-1.4208412
		C17.0622864,39.766716,17.0622864,39.4931602,16.8927517,39.3236275 M5.9578915,44.1591682
		c-0.418108-0.4191551-0.9985156-0.6791916-1.6392312-0.6791916c-0.6386523,0-1.2200737,0.2600365-1.6371658,0.6791916
		c-0.4212503,0.4191856-0.6802347,0.9995918-0.6802347,1.6392593c0,1.2803841,1.0370166,2.3174019,2.3174005,2.3174019h2.3194976
		v-2.3174019C6.6381578,45.1587601,6.3781257,44.5783539,5.9578915,44.1591682"/>
</g>
</svg>
