<?xml version="1.0" encoding="utf-8"?>
<!-- Generator: Adobe Illustrator 19.0.0, SVG Export Plug-In . SVG Version: 6.00 Build 0)  -->
<svg version="1.1" id="Capa_1" xmlns="http://www.w3.org/2000/svg" xmlns:xlink="http://www.w3.org/1999/xlink" x="0px" y="0px"
	 viewBox="-155 349 192 96" style="enable-background:new -155 349 192 96;" xml:space="preserve">
<style type="text/css">
	.st0{fill:#49A2D1;}
	.st1{fill:#1D1D1B;}
	.st2{fill:#009EE2;}
</style>
<image style="display:none;overflow:visible;enable-background:new    ;" width="313" height="60" id="XMLID_22_" xlink:href="B3A9212E.png"  transform="matrix(1 0 0 1 -150.1466 367)">
</image>
<g>
	<g id="XMLID_65_">
		<path id="XMLID_66_" class="st0" d="M-150.6,416.2c0.4,3.1,2.8,5.2,6.1,5.2c1.9,0,4.1-0.7,5.3-1.6c0.2-0.1,0.3-0.2,0.5-0.2
			c0.3,0,0.6,0.3,0.6,0.6c0,1-3.6,2.5-6.4,2.5c-4.1,0-7.3-3.1-7.3-7c0-3.7,3-6.4,6.9-6.4c2.9,0,5.3,1.5,6.4,4.1
			c0.4,1,0.5,1.6,0.5,2.9L-150.6,416.2L-150.6,416.2z M-145,410.4c-2.9,0-5.1,1.8-5.6,4.5h11.3C-139.8,412.2-142,410.4-145,410.4z"
			/>
		<path id="XMLID_69_" class="st0" d="M-120.7,422.2h-2.9v-2.7c-1.4,2.1-3.2,3.1-5.5,3.1c-3.6,0-6.5-3-6.5-6.7
			c0-3.7,2.9-6.7,6.5-6.7c2.3,0,4,1,5.5,3.1v-7.1h-1.6c-0.5,0-0.8-0.2-0.8-0.7c0-0.4,0.3-0.6,0.8-0.6h2.9v17h1.6
			c0.5,0,0.8,0.2,0.8,0.6C-119.9,421.9-120.2,422.2-120.7,422.2z M-128.9,410.4c-3,0-5.4,2.4-5.4,5.5s2.4,5.5,5.4,5.5
			c2.9,0,5.4-2.4,5.4-5.4C-123.6,412.8-125.9,410.4-128.9,410.4z"/>
		<path id="XMLID_72_" class="st0" d="M-104.2,422.2h-2.3v-2c-1.6,1.6-3.5,2.5-5.5,2.5c-2.4,0-4-1.6-4-3.9v-7.9h-1.6
			c-0.5,0-0.8-0.2-0.8-0.7c0-0.4,0.3-0.6,0.8-0.6h2.9v9.1c0,1.5,1.2,2.7,2.8,2.7c2,0,3.9-0.9,5.5-2.7v-7.9h-2.2
			c-0.6,0-0.9-0.2-0.9-0.7c0-0.4,0.3-0.6,0.9-0.6h3.5V421h1c0.5,0,0.8,0.2,0.8,0.6C-103.4,421.9-103.7,422.2-104.2,422.2z"/>
		<path id="XMLID_74_" class="st0" d="M-88.3,421c-1.5,1-3.5,1.6-5.5,1.6c-3.9,0-6.8-2.8-6.8-6.6c0-4,2.9-6.8,6.9-6.8
			c1.8,0,3.5,0.6,4.7,1.6v-0.4c0-0.6,0.2-0.9,0.7-0.9c0.4,0,0.6,0.3,0.6,0.9v2.8c0,0.5-0.2,0.8-0.6,0.8c-0.4,0-0.6-0.2-0.7-0.7
			c-0.1-1.6-2.3-2.9-4.8-2.9c-3.3,0-5.6,2.3-5.6,5.6c0,3.1,2.3,5.4,5.6,5.4c2.2,0,4.1-0.7,5.6-2.2c0.3-0.3,0.3-0.3,0.5-0.3
			c0.3,0,0.6,0.3,0.6,0.6C-87,419.9-87.5,420.4-88.3,421z"/>
		<path id="XMLID_76_" class="st0" d="M-70.2,422.2h-2.9v-2c-1.8,1.7-3.7,2.5-5.8,2.5c-2.8,0-4.7-1.6-4.7-3.9c0-2.6,2.6-4.4,6.4-4.4
			c1.4,0,2.3,0.1,4.1,0.7v-2.2c0-1.5-1.5-2.5-3.7-2.5c-1.1,0-1.9,0.2-4.3,0.9c-0.1,0-0.3,0.1-0.3,0.1c-0.3,0-0.6-0.3-0.6-0.6
			c0-0.3,0.2-0.5,0.5-0.7c1.6-0.6,3.6-1,4.7-1c2.8,0,4.8,1.6,4.8,3.7v8.1h1.6c0.5,0,0.8,0.2,0.8,0.6
			C-69.4,421.9-69.6,422.2-70.2,422.2z M-73.1,416.1c-1.1-0.3-2.6-0.5-3.9-0.5c-3.2,0-5.4,1.3-5.4,3.2c0,1.6,1.4,2.6,3.4,2.6
			c2.2,0,3.7-0.7,5.8-2.6L-73.1,416.1L-73.1,416.1z"/>
		<path id="XMLID_79_" class="st1" d="M-59.2,422.7c-2,0-3.5-0.5-4.7-1.6v0.3c0,0.5-0.2,0.8-0.6,0.8c-0.4,0-0.7-0.3-0.7-0.8v-2.5
			c0-0.5,0.2-0.8,0.7-0.8c0.4,0,0.6,0.3,0.6,0.7v0.2c0,1.4,2.1,2.5,4.7,2.5c2.6,0,4.7-1.2,4.7-2.8c0-1.4-1.3-2.4-4.6-2.7
			c-4.3-0.5-5.3-1.6-5.3-3.3c0-2,2.2-3.4,5.2-3.4c1.7,0,3.1,0.5,4.1,1.4v-0.1c0-0.5,0.3-0.9,0.7-0.9s0.6,0.3,0.6,0.9v2.1
			c0,0.5-0.2,0.8-0.6,0.8c-0.4,0-0.6-0.2-0.7-0.7c-0.1-1.4-1.7-2.2-4-2.2c-2.2,0-3.9,1-3.9,2.3c0,1.8,1.9,1.7,4.5,2.1
			c3.6,0.6,5.4,1.8,5.4,3.9C-53.3,421-55.8,422.7-59.2,422.7z"/>
		<path id="XMLID_81_" class="st1" d="M-41.9,422.7c-2.8,0-4.7-1.4-4.7-3.7v-8.1h-2.2c-0.6,0-0.9-0.2-0.9-0.7c0-0.4,0.3-0.6,0.9-0.6
			h2.2V406c0-0.5,0.2-0.8,0.7-0.8c0.4,0,0.6,0.3,0.6,0.8v3.6h6.6c0.5,0,0.8,0.2,0.8,0.6c0,0.4-0.3,0.7-0.8,0.7h-6.6v8.1
			c0,1.5,1.3,2.6,3.4,2.6c1.7,0,3.8-0.5,5-1.2c0.3-0.1,0.3-0.2,0.5-0.2c0.3,0,0.6,0.3,0.6,0.6C-35.9,421.5-39.4,422.7-41.9,422.7z"
			/>
		<path id="XMLID_83_" class="st1" d="M-19.5,422.2h-2.3v-2c-1.6,1.6-3.5,2.5-5.5,2.5c-2.4,0-4-1.6-4-3.9v-7.9H-33
			c-0.5,0-0.8-0.2-0.8-0.7c0-0.4,0.3-0.6,0.8-0.6h2.9v9.1c0,1.5,1.2,2.7,2.8,2.7c2,0,3.9-0.9,5.5-2.7v-7.9H-24
			c-0.6,0-0.9-0.2-0.9-0.7c0-0.4,0.3-0.6,0.9-0.6h3.5V421h1c0.5,0,0.8,0.2,0.8,0.6C-18.7,421.9-18.9,422.2-19.5,422.2z"/>
		<path id="XMLID_85_" class="st1" d="M-1.6,411.8c-0.2,0-0.3,0-0.5-0.3c-0.7-0.7-1.3-1-2-1c-1.4,0-2.4,0.7-5.7,3.7v6.7h5.4
			c0.5,0,0.8,0.3,0.8,0.7s-0.3,0.6-0.8,0.6h-9.5c-0.5,0-0.8-0.3-0.8-0.7s0.3-0.6,0.8-0.6h2.9v-10h-2.3c-0.5,0-0.8-0.3-0.8-0.7
			c0-0.4,0.3-0.6,0.8-0.6h3.5v3.1c2.8-2.6,4.3-3.4,5.8-3.4c0.9,0,1.5,0.3,2.3,0.9c0.5,0.4,0.7,0.7,0.7,0.9
			C-1,411.5-1.2,411.8-1.6,411.8z"/>
	</g>
	<g id="XMLID_37_">
		<g id="XMLID_38_">
			<path id="XMLID_39_" class="st2" d="M8.9,425.4c-0.5,0.9-0.8,1-1,1c-0.3,0-0.7-0.3-0.7-0.7c0-0.1,0-0.2,0.1-0.3
				c2.2-3.9,3.1-7.1,3.1-10.5s-0.9-6.6-3.1-10.5c-0.1-0.1-0.1-0.2-0.1-0.3c0-0.3,0.3-0.7,0.7-0.7s0.6,0.3,1.3,1.5
				c2.2,3.5,3.1,6.8,3.1,10.1C12.4,418.3,11.1,421.9,8.9,425.4z"/>
		</g>
		<g id="XMLID_59_">
			<path id="XMLID_60_" class="st2" d="M18.3,428.7c-0.7,1.1-1,1.4-1.4,1.4c-0.5,0-0.9-0.4-0.9-0.9c0-0.2,0.1-0.3,0.1-0.5
				c2.9-5,4.1-9.4,4.1-13.8c0-4.5-1.2-8.6-4.1-13.8c-0.1-0.2-0.1-0.3-0.1-0.5c0-0.5,0.4-0.9,0.9-0.9c0.4,0,0.8,0.4,1.8,2
				c2.8,4.7,4.2,9,4.2,13.2C22.9,419.3,21.3,424.1,18.3,428.7z"/>
		</g>
		<g id="XMLID_62_">
			<path id="XMLID_63_" class="st2" d="M28.3,432.2c-0.9,1.4-1.2,1.8-1.8,1.8c-0.6,0-1-0.5-1-1c0-0.2,0.1-0.3,0.1-0.6
				c3.6-6.4,5.2-11.8,5.2-17.4c0-5.6-1.6-10.9-5.2-17.4c-0.1-0.3-0.1-0.4-0.1-0.6c0-0.6,0.5-1,1.1-1c0.5,0,1,0.5,2.2,2.4
				c3.5,5.8,5.2,11.3,5.2,16.7C34.1,420.4,32,426.5,28.3,432.2z"/>
		</g>
	</g>
</g>
</svg>
