<?xml version="1.0" encoding="utf-8"?>
<!-- Generator: Adobe Illustrator 26.5.2, SVG Export Plug-In . SVG Version: 6.00 Build 0)  -->
<svg version="1.1" id="Capa_1" xmlns="http://www.w3.org/2000/svg" xmlns:xlink="http://www.w3.org/1999/xlink" x="0px" y="0px"
	 viewBox="0 0 224 96" style="enable-background:new 0 0 224 96;" xml:space="preserve">
<style type="text/css">
	.st0{fill:#FFFFFF;}
	.st1{fill:#034EA2;}
	.st2{fill:#FFF200;}
</style>
<g>
	<rect x="1" y="41.6" class="st0" width="74.6" height="50.6"/>
	<path class="st0" d="M38.3,67.4"/>
	<rect x="2.4" y="43" class="st1" width="71.7" height="47.8"/>
	<path class="st1" d="M38.3,66.9"/>
	<polyline class="st2" points="36.8,53.4 38.3,52.3 39.8,53.4 39.2,51.6 40.7,50.5 38.8,50.5 38.3,48.7 37.7,50.5 35.8,50.5 
		37.3,51.6 36.8,53.4 	"/>
	<polyline class="st2" points="28.9,55.5 30.4,54.4 31.9,55.5 31.4,53.7 32.9,52.6 31,52.6 30.4,50.8 29.9,52.6 28,52.6 29.5,53.7 
		28.9,55.5 	"/>
	<polyline class="st2" points="24.7,56.6 24.1,58.4 22.2,58.4 23.8,59.5 23.2,61.3 24.7,60.1 26.2,61.3 25.6,59.5 27.2,58.4 
		25.3,58.4 24.7,56.6 	"/>
	<polyline class="st2" points="22.6,68 24.1,69.1 23.5,67.3 25.1,66.2 23.2,66.2 22.6,64.4 22,66.2 20.1,66.2 21.7,67.3 21.1,69.1 
		22.6,68 	"/>
	<polyline class="st2" points="25.3,74 24.7,72.2 24.1,74 22.2,74 23.8,75.1 23.2,76.9 24.7,75.8 26.2,76.9 25.6,75.1 27.2,74 
		25.3,74 	"/>
	<polyline class="st2" points="31,79.8 30.4,78 29.9,79.8 28,79.8 29.5,80.9 28.9,82.7 30.4,81.5 32,82.7 31.4,80.9 32.9,79.8 
		31,79.8 	"/>
	<polyline class="st2" points="38.8,81.8 38.3,80 37.7,81.8 35.8,81.8 37.3,82.9 36.8,84.7 38.3,83.6 39.8,84.7 39.2,82.9 
		40.7,81.8 38.8,81.8 	"/>
	<polyline class="st2" points="46.7,79.8 46.1,78 45.5,79.8 43.6,79.8 45.1,80.9 44.6,82.7 46.1,81.5 47.6,82.7 47,80.9 48.6,79.8 
		46.7,79.8 	"/>
	<polyline class="st2" points="52.4,74 51.8,72.2 51.2,74 49.3,74 50.9,75.1 50.3,76.9 51.8,75.8 53.3,76.9 52.8,75.1 54.3,74 
		52.4,74 	"/>
	<polyline class="st2" points="56.4,66.2 54.5,66.2 53.9,64.4 53.3,66.2 51.4,66.2 53,67.3 52.4,69 53.9,67.9 55.4,69 54.8,67.3 
		56.4,66.2 	"/>
	<polyline class="st2" points="50.3,61.2 51.8,60.1 53.3,61.2 52.8,59.4 54.3,58.3 52.4,58.3 51.8,56.5 51.2,58.3 49.3,58.3 
		50.9,59.4 50.3,61.2 	"/>
	<polyline class="st2" points="46.1,50.8 45.5,52.6 43.6,52.6 45.2,53.7 44.6,55.5 46.1,54.4 47.6,55.5 47,53.7 48.6,52.6 
		46.7,52.6 46.1,50.8 	"/>
	<g>
		<path class="st1" d="M92.5,57.1l2.3,0.7c-0.4,1.3-0.9,2.2-1.8,2.9c-0.8,0.6-1.9,0.9-3.1,0.9c-1.6,0-2.8-0.5-3.9-1.6
			c-1-1.1-1.5-2.5-1.5-4.4c0-2,0.5-3.5,1.5-4.6c1-1.1,2.3-1.6,4-1.6c1.4,0,2.6,0.4,3.5,1.3c0.5,0.5,0.9,1.2,1.2,2.2l-2.4,0.6
			c-0.1-0.6-0.4-1.1-0.9-1.4c-0.4-0.4-1-0.5-1.6-0.5c-0.9,0-1.6,0.3-2.1,0.9c-0.5,0.6-0.8,1.6-0.8,3c0,1.5,0.3,2.5,0.8,3.2
			c0.5,0.6,1.2,0.9,2.1,0.9c0.6,0,1.2-0.2,1.6-0.6C92,58.6,92.3,57.9,92.5,57.1z"/>
		<path class="st1" d="M96.3,57c0-0.7,0.2-1.5,0.6-2.2c0.4-0.7,0.9-1.2,1.6-1.6c0.7-0.4,1.4-0.6,2.3-0.6c1.3,0,2.3,0.4,3.2,1.3
			c0.8,0.8,1.2,1.9,1.2,3.2c0,1.3-0.4,2.4-1.2,3.2c-0.8,0.8-1.9,1.3-3.1,1.3c-0.8,0-1.5-0.2-2.2-0.5c-0.7-0.4-1.2-0.9-1.6-1.6
			C96.5,58.8,96.3,58,96.3,57z M98.6,57.1c0,0.8,0.2,1.5,0.6,1.9c0.4,0.4,0.9,0.7,1.5,0.7c0.6,0,1.1-0.2,1.5-0.7
			c0.4-0.4,0.6-1.1,0.6-2c0-0.8-0.2-1.5-0.6-1.9c-0.4-0.4-0.9-0.7-1.5-0.7c-0.6,0-1.1,0.2-1.5,0.7C98.8,55.7,98.6,56.3,98.6,57.1z"
			/>
		<path class="st1" d="M105.9,52.9h1.3v-0.6c0-0.7,0.1-1.3,0.2-1.6c0.2-0.4,0.4-0.6,0.8-0.9c0.4-0.2,0.9-0.3,1.6-0.3
			c0.6,0,1.3,0.1,1.9,0.3l-0.3,1.6c-0.4-0.1-0.7-0.1-1-0.1c-0.3,0-0.6,0.1-0.7,0.2c-0.1,0.2-0.2,0.4-0.2,0.9v0.6h1.7v1.8h-1.7v6.7
			h-2.3v-6.7h-1.3V52.9z M112.2,51.7v-2.1h2.3v2.1H112.2z M112.2,61.4v-8.5h2.3v8.5H112.2z"/>
		<path class="st1" d="M124.6,61.4h-2.3v-4.3c0-0.9,0-1.5-0.1-1.8c-0.1-0.3-0.3-0.5-0.5-0.6c-0.2-0.1-0.5-0.2-0.8-0.2
			c-0.4,0-0.7,0.1-1.1,0.3c-0.3,0.2-0.5,0.5-0.6,0.9c-0.1,0.4-0.2,1-0.2,2v3.9h-2.3v-8.5h2.1v1.3c0.7-1,1.7-1.4,2.8-1.4
			c0.5,0,1,0.1,1.4,0.3c0.4,0.2,0.7,0.4,0.9,0.7c0.2,0.3,0.4,0.6,0.4,0.9c0.1,0.4,0.1,0.9,0.1,1.5V61.4z"/>
		<path class="st1" d="M128.6,55.5l-2-0.4c0.2-0.8,0.6-1.4,1.2-1.8c0.6-0.4,1.4-0.6,2.5-0.6c1,0,1.8,0.1,2.2,0.4
			c0.5,0.2,0.8,0.5,1,0.9c0.2,0.4,0.3,1,0.3,2l0,2.6c0,0.7,0,1.3,0.1,1.7c0.1,0.4,0.2,0.7,0.4,1.1h-2.2c-0.1-0.1-0.1-0.4-0.2-0.7
			c0-0.1-0.1-0.2-0.1-0.3c-0.4,0.4-0.8,0.7-1.2,0.8c-0.4,0.2-0.9,0.3-1.4,0.3c-0.9,0-1.6-0.2-2.1-0.7c-0.5-0.5-0.8-1.1-0.8-1.8
			c0-0.5,0.1-0.9,0.3-1.3c0.2-0.4,0.6-0.7,1-0.9c0.4-0.2,1-0.4,1.8-0.5c1.1-0.2,1.8-0.4,2.2-0.6v-0.2c0-0.4-0.1-0.7-0.3-0.9
			c-0.2-0.2-0.6-0.3-1.2-0.3c-0.4,0-0.7,0.1-0.9,0.2C128.9,54.8,128.7,55.1,128.6,55.5z M131.6,57.3c-0.3,0.1-0.7,0.2-1.4,0.3
			c-0.6,0.1-1,0.3-1.2,0.4c-0.3,0.2-0.4,0.5-0.4,0.8c0,0.3,0.1,0.6,0.4,0.8c0.2,0.2,0.5,0.3,0.9,0.3c0.4,0,0.8-0.1,1.2-0.4
			c0.3-0.2,0.5-0.5,0.5-0.7c0.1-0.2,0.1-0.6,0.1-1.1V57.3z"/>
		<path class="st1" d="M143.8,61.4h-2.3v-4.3c0-0.9,0-1.5-0.1-1.8c-0.1-0.3-0.3-0.5-0.5-0.6c-0.2-0.1-0.5-0.2-0.8-0.2
			c-0.4,0-0.7,0.1-1.1,0.3c-0.3,0.2-0.5,0.5-0.6,0.9c-0.1,0.4-0.2,1-0.2,2v3.9H136v-8.5h2.1v1.3c0.7-1,1.7-1.4,2.8-1.4
			c0.5,0,1,0.1,1.4,0.3c0.4,0.2,0.7,0.4,0.9,0.7c0.2,0.3,0.4,0.6,0.4,0.9c0.1,0.4,0.1,0.9,0.1,1.5V61.4z"/>
		<path class="st1" d="M153.5,55.4l-2.2,0.4c-0.1-0.4-0.2-0.8-0.5-1c-0.3-0.2-0.6-0.3-1-0.3c-0.6,0-1,0.2-1.3,0.6
			c-0.3,0.4-0.5,1-0.5,1.9c0,1,0.2,1.7,0.5,2.1c0.3,0.4,0.8,0.6,1.4,0.6c0.4,0,0.8-0.1,1.1-0.4c0.3-0.2,0.5-0.7,0.6-1.3l2.2,0.4
			c-0.2,1-0.7,1.8-1.3,2.3c-0.7,0.5-1.5,0.8-2.6,0.8c-1.2,0-2.2-0.4-3-1.2c-0.7-0.8-1.1-1.9-1.1-3.3c0-1.4,0.4-2.5,1.1-3.3
			c0.7-0.8,1.7-1.2,3-1.2c1,0,1.9,0.2,2.5,0.7C152.8,53.8,153.2,54.5,153.5,55.4z"/>
		<path class="st1" d="M155.2,51.7v-2.1h2.3v2.1H155.2z M155.2,61.4v-8.5h2.3v8.5H155.2z"/>
		<path class="st1" d="M161.5,55.5l-2-0.4c0.2-0.8,0.6-1.4,1.2-1.8c0.6-0.4,1.4-0.6,2.5-0.6c1,0,1.8,0.1,2.2,0.4
			c0.5,0.2,0.8,0.5,1,0.9c0.2,0.4,0.3,1,0.3,2l0,2.6c0,0.7,0,1.3,0.1,1.7c0.1,0.4,0.2,0.7,0.4,1.1H165c-0.1-0.1-0.1-0.4-0.2-0.7
			c0-0.1-0.1-0.2-0.1-0.3c-0.4,0.4-0.8,0.7-1.2,0.8c-0.4,0.2-0.9,0.3-1.4,0.3c-0.9,0-1.6-0.2-2.1-0.7c-0.5-0.5-0.8-1.1-0.8-1.8
			c0-0.5,0.1-0.9,0.3-1.3c0.2-0.4,0.6-0.7,1-0.9c0.4-0.2,1-0.4,1.8-0.5c1.1-0.2,1.8-0.4,2.2-0.6v-0.2c0-0.4-0.1-0.7-0.3-0.9
			c-0.2-0.2-0.6-0.3-1.2-0.3c-0.4,0-0.7,0.1-0.9,0.2C161.8,54.8,161.6,55.1,161.5,55.5z M164.5,57.3c-0.3,0.1-0.7,0.2-1.4,0.3
			c-0.6,0.1-1,0.3-1.2,0.4c-0.3,0.2-0.4,0.5-0.4,0.8c0,0.3,0.1,0.6,0.4,0.8c0.2,0.2,0.5,0.3,0.9,0.3c0.4,0,0.8-0.1,1.2-0.4
			c0.3-0.2,0.5-0.5,0.5-0.7c0.1-0.2,0.1-0.6,0.1-1.1V57.3z"/>
		<path class="st1" d="M176.7,61.4h-2.1v-1.3c-0.3,0.5-0.8,0.8-1.2,1.1c-0.5,0.2-1,0.4-1.4,0.4c-1,0-1.8-0.4-2.5-1.2
			c-0.7-0.8-1-1.9-1-3.3c0-1.4,0.3-2.5,1-3.3c0.7-0.8,1.5-1.1,2.6-1.1c1,0,1.8,0.4,2.5,1.2v-4.2h2.3V61.4z M170.7,57
			c0,0.9,0.1,1.6,0.4,2c0.4,0.6,0.9,0.9,1.5,0.9c0.5,0,1-0.2,1.3-0.7c0.4-0.4,0.5-1.1,0.5-2c0-1-0.2-1.7-0.5-2.1
			c-0.4-0.4-0.8-0.6-1.4-0.6c-0.5,0-1,0.2-1.3,0.6C170.9,55.5,170.7,56.1,170.7,57z"/>
		<path class="st1" d="M178.4,57c0-0.7,0.2-1.5,0.6-2.2c0.4-0.7,0.9-1.2,1.6-1.6c0.7-0.4,1.4-0.6,2.3-0.6c1.3,0,2.3,0.4,3.2,1.3
			c0.8,0.8,1.2,1.9,1.2,3.2c0,1.3-0.4,2.4-1.2,3.2c-0.8,0.8-1.9,1.3-3.1,1.3c-0.8,0-1.5-0.2-2.2-0.5c-0.7-0.4-1.2-0.9-1.6-1.6
			C178.6,58.8,178.4,58,178.4,57z M180.8,57.1c0,0.8,0.2,1.5,0.6,1.9c0.4,0.4,0.9,0.7,1.5,0.7c0.6,0,1.1-0.2,1.5-0.7
			c0.4-0.4,0.6-1.1,0.6-2c0-0.8-0.2-1.5-0.6-1.9c-0.4-0.4-0.9-0.7-1.5-0.7c-0.6,0-1.1,0.2-1.5,0.7C181,55.7,180.8,56.3,180.8,57.1z"
			/>
		<path class="st1" d="M193.5,52.9h2.1v1.3c0.3-0.4,0.6-0.8,1.1-1c0.5-0.3,1-0.4,1.5-0.4c1,0,1.8,0.4,2.5,1.2c0.7,0.8,1,1.9,1,3.2
			c0,1.4-0.3,2.5-1,3.3c-0.7,0.8-1.5,1.2-2.5,1.2c-0.5,0-0.9-0.1-1.3-0.3c-0.4-0.2-0.8-0.5-1.2-1v4.3h-2.3V52.9z M195.7,57
			c0,1,0.2,1.7,0.6,2.1c0.4,0.5,0.8,0.7,1.4,0.7c0.5,0,1-0.2,1.3-0.6c0.3-0.4,0.5-1.1,0.5-2.1c0-0.9-0.2-1.6-0.5-2
			c-0.4-0.4-0.8-0.6-1.3-0.6c-0.6,0-1,0.2-1.4,0.6C195.9,55.5,195.7,56.2,195.7,57z"/>
		<path class="st1" d="M203.1,57c0-0.7,0.2-1.5,0.6-2.2c0.4-0.7,0.9-1.2,1.6-1.6c0.7-0.4,1.4-0.6,2.3-0.6c1.3,0,2.3,0.4,3.2,1.3
			c0.8,0.8,1.2,1.9,1.2,3.2c0,1.3-0.4,2.4-1.2,3.2c-0.8,0.8-1.9,1.3-3.1,1.3c-0.8,0-1.5-0.2-2.2-0.5c-0.7-0.4-1.2-0.9-1.6-1.6
			C203.3,58.8,203.1,58,203.1,57z M205.4,57.1c0,0.8,0.2,1.5,0.6,1.9c0.4,0.4,0.9,0.7,1.5,0.7c0.6,0,1.1-0.2,1.5-0.7
			c0.4-0.4,0.6-1.1,0.6-2c0-0.8-0.2-1.5-0.6-1.9c-0.4-0.4-0.9-0.7-1.5-0.7c-0.6,0-1.1,0.2-1.5,0.7C205.6,55.7,205.4,56.3,205.4,57.1
			z"/>
		<path class="st1" d="M215.8,61.4h-2.3v-8.5h2.1v1.2c0.4-0.6,0.7-0.9,1-1.1c0.3-0.2,0.6-0.3,1-0.3c0.5,0,1,0.1,1.5,0.4l-0.7,2
			c-0.4-0.2-0.7-0.4-1.1-0.4c-0.3,0-0.6,0.1-0.8,0.3c-0.2,0.2-0.4,0.5-0.5,0.9c-0.1,0.5-0.2,1.4-0.2,2.9V61.4z"/>
		<path class="st1" d="M84.9,81.1V69.4h2.3v11.8H84.9z"/>
		<path class="st1" d="M91.2,75.2l-2-0.4c0.2-0.8,0.6-1.4,1.2-1.8c0.6-0.4,1.4-0.6,2.5-0.6c1,0,1.8,0.1,2.2,0.4
			c0.5,0.2,0.8,0.5,1,0.9c0.2,0.4,0.3,1,0.3,2l0,2.6c0,0.7,0,1.3,0.1,1.7c0.1,0.4,0.2,0.7,0.4,1.1h-2.2c-0.1-0.1-0.1-0.4-0.2-0.7
			c0-0.1-0.1-0.2-0.1-0.3c-0.4,0.4-0.8,0.7-1.2,0.8c-0.4,0.2-0.9,0.3-1.4,0.3c-0.9,0-1.6-0.2-2.1-0.7c-0.5-0.5-0.8-1.1-0.8-1.8
			c0-0.5,0.1-0.9,0.3-1.3c0.2-0.4,0.6-0.7,1-0.9c0.4-0.2,1-0.4,1.8-0.5c1.1-0.2,1.8-0.4,2.2-0.6v-0.2c0-0.4-0.1-0.7-0.3-0.9
			c-0.2-0.2-0.6-0.3-1.2-0.3c-0.4,0-0.7,0.1-0.9,0.2C91.5,74.5,91.3,74.8,91.2,75.2z M94.2,77c-0.3,0.1-0.7,0.2-1.4,0.3
			c-0.6,0.1-1,0.3-1.2,0.4c-0.3,0.2-0.4,0.5-0.4,0.8c0,0.3,0.1,0.6,0.4,0.8c0.2,0.2,0.5,0.3,0.9,0.3c0.4,0,0.8-0.1,1.2-0.4
			c0.3-0.2,0.5-0.5,0.5-0.7c0.1-0.2,0.1-0.6,0.1-1.1V77z"/>
		<path class="st1" d="M103.2,69.4h2.4v6.4c0,1,0,1.7,0.1,2c0.1,0.5,0.3,0.9,0.7,1.2c0.4,0.3,0.9,0.4,1.6,0.4c0.7,0,1.2-0.1,1.5-0.4
			c0.3-0.3,0.5-0.6,0.6-1c0.1-0.4,0.1-1.1,0.1-2v-6.5h2.4v6.2c0,1.4-0.1,2.4-0.2,3c-0.1,0.6-0.4,1.1-0.7,1.5c-0.3,0.4-0.8,0.7-1.4,1
			c-0.6,0.2-1.3,0.4-2.3,0.4c-1.1,0-2-0.1-2.6-0.4c-0.6-0.3-1-0.6-1.4-1c-0.3-0.4-0.6-0.8-0.7-1.3c-0.2-0.7-0.2-1.7-0.2-3V69.4z"/>
		<path class="st1" d="M122.8,81.1h-2.3v-4.3c0-0.9,0-1.5-0.1-1.8c-0.1-0.3-0.3-0.5-0.5-0.6c-0.2-0.1-0.5-0.2-0.8-0.2
			c-0.4,0-0.7,0.1-1.1,0.3c-0.3,0.2-0.5,0.5-0.6,0.9c-0.1,0.4-0.2,1-0.2,2v3.9h-2.3v-8.5h2.1v1.3c0.7-1,1.7-1.4,2.8-1.4
			c0.5,0,1,0.1,1.4,0.3c0.4,0.2,0.7,0.4,0.9,0.7c0.2,0.3,0.4,0.6,0.4,0.9c0.1,0.4,0.1,0.9,0.1,1.5V81.1z"/>
		<path class="st1" d="M125.1,71.4v-2.1h2.3v2.1H125.1z M125.1,81.1v-8.5h2.3v8.5H125.1z"/>
		<path class="st1" d="M129.2,76.7c0-0.7,0.2-1.5,0.6-2.2c0.4-0.7,0.9-1.2,1.6-1.6c0.7-0.4,1.4-0.6,2.3-0.6c1.3,0,2.3,0.4,3.2,1.3
			c0.8,0.8,1.2,1.9,1.2,3.2c0,1.3-0.4,2.4-1.2,3.2c-0.8,0.8-1.9,1.3-3.1,1.3c-0.8,0-1.5-0.2-2.2-0.5s-1.2-0.9-1.6-1.6
			C129.3,78.6,129.2,77.7,129.2,76.7z M131.5,76.9c0,0.8,0.2,1.5,0.6,1.9c0.4,0.4,0.9,0.7,1.5,0.7c0.6,0,1.1-0.2,1.5-0.7
			c0.4-0.4,0.6-1.1,0.6-2c0-0.8-0.2-1.5-0.6-1.9s-0.9-0.7-1.5-0.7c-0.6,0-1.1,0.2-1.5,0.7C131.7,75.4,131.5,76,131.5,76.9z
			 M132.4,71.6l1.1-2.4h2.5l-2.2,2.4H132.4z"/>
		<path class="st1" d="M147.5,81.1h-2.3v-4.3c0-0.9,0-1.5-0.1-1.8s-0.3-0.5-0.5-0.6c-0.2-0.1-0.5-0.2-0.8-0.2
			c-0.4,0-0.7,0.1-1.1,0.3c-0.3,0.2-0.5,0.5-0.6,0.9c-0.1,0.4-0.2,1-0.2,2v3.9h-2.3v-8.5h2.1v1.3c0.7-1,1.7-1.4,2.8-1.4
			c0.5,0,1,0.1,1.4,0.3c0.4,0.2,0.7,0.4,0.9,0.7c0.2,0.3,0.4,0.6,0.4,0.9c0.1,0.4,0.1,0.9,0.1,1.5V81.1z"/>
		<path class="st1" d="M154.3,81.1V69.4h8.7v2h-6.3V74h5.9v2h-5.9v3.2h6.6v2H154.3z"/>
		<path class="st1" d="M170.9,81.1v-1.3c-0.3,0.5-0.7,0.8-1.2,1.1c-0.5,0.3-1,0.4-1.6,0.4c-0.6,0-1.1-0.1-1.5-0.4
			c-0.5-0.3-0.8-0.6-1-1.1c-0.2-0.5-0.3-1.1-0.3-1.9v-5.4h2.3v3.9c0,1.2,0,1.9,0.1,2.2c0.1,0.3,0.2,0.5,0.5,0.6
			c0.2,0.2,0.5,0.2,0.8,0.2c0.4,0,0.7-0.1,1-0.3c0.3-0.2,0.5-0.5,0.6-0.8c0.1-0.3,0.2-1.1,0.2-2.3v-3.6h2.3v8.5H170.9z"/>
		<path class="st1" d="M177.5,81.1h-2.3v-8.5h2.1v1.2c0.4-0.6,0.7-0.9,1-1.1c0.3-0.2,0.6-0.3,1-0.3c0.5,0,1,0.1,1.5,0.4l-0.7,2
			c-0.4-0.2-0.7-0.4-1.1-0.4c-0.3,0-0.6,0.1-0.8,0.3c-0.2,0.2-0.4,0.5-0.5,0.9c-0.1,0.5-0.2,1.4-0.2,2.9V81.1z"/>
		<path class="st1" d="M181.2,76.7c0-0.7,0.2-1.5,0.6-2.2c0.4-0.7,0.9-1.2,1.6-1.6c0.7-0.4,1.4-0.6,2.3-0.6c1.3,0,2.3,0.4,3.2,1.3
			c0.8,0.8,1.2,1.9,1.2,3.2c0,1.3-0.4,2.4-1.2,3.2c-0.8,0.8-1.9,1.3-3.1,1.3c-0.8,0-1.5-0.2-2.2-0.5s-1.2-0.9-1.6-1.6
			C181.4,78.6,181.2,77.7,181.2,76.7z M183.5,76.9c0,0.8,0.2,1.5,0.6,1.9c0.4,0.4,0.9,0.7,1.5,0.7c0.6,0,1.1-0.2,1.5-0.7
			c0.4-0.4,0.6-1.1,0.6-2c0-0.8-0.2-1.5-0.6-1.9s-0.9-0.7-1.5-0.7c-0.6,0-1.1,0.2-1.5,0.7C183.7,75.4,183.5,76,183.5,76.9z"/>
		<path class="st1" d="M191.7,72.6h2.1v1.3c0.3-0.4,0.6-0.8,1.1-1c0.5-0.3,1-0.4,1.5-0.4c1,0,1.8,0.4,2.5,1.2c0.7,0.8,1,1.9,1,3.2
			c0,1.4-0.3,2.5-1,3.3c-0.7,0.8-1.5,1.2-2.5,1.2c-0.5,0-0.9-0.1-1.3-0.3c-0.4-0.2-0.8-0.5-1.2-1v4.3h-2.3V72.6z M193.9,76.7
			c0,1,0.2,1.7,0.6,2.1c0.4,0.5,0.8,0.7,1.4,0.7c0.5,0,1-0.2,1.3-0.6c0.3-0.4,0.5-1.1,0.5-2.1c0-0.9-0.2-1.6-0.5-2
			c-0.4-0.4-0.8-0.6-1.3-0.6c-0.6,0-1,0.2-1.4,0.6C194.1,75.3,193.9,75.9,193.9,76.7z"/>
		<path class="st1" d="M206.7,78.4l2.2,0.4c-0.3,0.8-0.7,1.5-1.4,1.9c-0.6,0.4-1.4,0.6-2.3,0.6c-1.5,0-2.6-0.5-3.3-1.5
			c-0.6-0.8-0.8-1.8-0.8-2.9c0-1.4,0.4-2.5,1.1-3.3s1.7-1.2,2.8-1.2c1.3,0,2.3,0.4,3,1.3c0.7,0.8,1.1,2.1,1.1,3.8h-5.6
			c0,0.7,0.2,1.2,0.5,1.6c0.3,0.4,0.8,0.6,1.3,0.6c0.4,0,0.6-0.1,0.9-0.3S206.6,78.8,206.7,78.4z M206.8,76.1c0-0.7-0.2-1.1-0.5-1.5
			c-0.3-0.3-0.7-0.5-1.2-0.5c-0.5,0-0.9,0.2-1.2,0.5c-0.3,0.4-0.5,0.8-0.5,1.5H206.8z"/>
		<path class="st1" d="M212.6,75.2l-2-0.4c0.2-0.8,0.6-1.4,1.2-1.8c0.6-0.4,1.4-0.6,2.5-0.6c1,0,1.8,0.1,2.2,0.4
			c0.5,0.2,0.8,0.5,1,0.9c0.2,0.4,0.3,1,0.3,2l0,2.6c0,0.7,0,1.3,0.1,1.7c0.1,0.4,0.2,0.7,0.4,1.1h-2.2c-0.1-0.1-0.1-0.4-0.2-0.7
			c0-0.1-0.1-0.2-0.1-0.3c-0.4,0.4-0.8,0.7-1.2,0.8c-0.4,0.2-0.9,0.3-1.4,0.3c-0.9,0-1.6-0.2-2.1-0.7c-0.5-0.5-0.8-1.1-0.8-1.8
			c0-0.5,0.1-0.9,0.3-1.3c0.2-0.4,0.6-0.7,1-0.9c0.4-0.2,1-0.4,1.8-0.5c1.1-0.2,1.8-0.4,2.2-0.6v-0.2c0-0.4-0.1-0.7-0.3-0.9
			c-0.2-0.2-0.6-0.3-1.2-0.3c-0.4,0-0.7,0.1-0.9,0.2C212.9,74.5,212.7,74.8,212.6,75.2z M215.6,77c-0.3,0.1-0.7,0.2-1.4,0.3
			c-0.6,0.1-1,0.3-1.2,0.4c-0.3,0.2-0.4,0.5-0.4,0.8c0,0.3,0.1,0.6,0.4,0.8c0.2,0.2,0.5,0.3,0.9,0.3c0.4,0,0.8-0.1,1.2-0.4
			c0.3-0.2,0.5-0.5,0.5-0.7c0.1-0.2,0.1-0.6,0.1-1.1V77z"/>
	</g>
</g>
</svg>
